<?xml version="1.0" standalone="no"?>
<!DOCTYPE svg PUBLIC "-//W3C//DTD SVG 1.1//EN" "http://www.w3.org/Graphics/SVG/1.1/DTD/svg11.dtd" >
<svg xmlns="http://www.w3.org/2000/svg" xmlns:xlink="http://www.w3.org/1999/xlink" version="1.1">
<metadata>
Created by FontForge 20201107 at Mon Sep  4 23:20:01 2023
 By 
Wedges (c) Dm Letter Studio . 2020. All Rights Reserved
</metadata>
<defs>
<font id="Wedges" horiz-adv-x="639" >
  <font-face 
    font-family="Wedges"
    font-weight="400"
    font-stretch="normal"
    units-per-em="1000"
    panose-1="2 0 5 0 0 0 0 0 0 0"
    ascent="800"
    descent="-200"
    x-height="801"
    cap-height="811"
    bbox="-114 -416 1009 1131"
    underline-thickness="50"
    underline-position="-100"
    unicode-range="U+001D-E000"
  />
<missing-glyph horiz-adv-x="500" 
 />
    <glyph glyph-name=".notdef" horiz-adv-x="500" 
 />
    <glyph glyph-name=".null" horiz-adv-x="0" 
 />
    <glyph glyph-name=".null" horiz-adv-x="0" 
 />
    <glyph glyph-name="nonmarkingreturn" horiz-adv-x="508" 
 />
    <glyph glyph-name="space" unicode=" " horiz-adv-x="400" 
 />
    <glyph glyph-name="space" unicode="&#xa0;" horiz-adv-x="400" 
 />
    <glyph glyph-name="exclam" unicode="!" horiz-adv-x="306" 
d="M143 234q40 0 75 27t49 69q10 31 12.5 64t4.5 99l2 63h-1v59q0 56 -7 111t-33.5 91.5t-85.5 36.5h-8q-101 -6 -116 -128q-6 -53 -10 -135q-5 -110 -5 -167t7.5 -90t30.5 -59q36 -41 85 -41zM151 -122q31 0 60 14.5t48 42.5q22 36 22 77q0 36 -19 68.5t-59 48.5
q-31 13 -61 13q-23 0 -46 -11q-37 -21 -56 -54t-19 -69q0 -47 33 -88q43 -42 97 -42z" />
    <glyph glyph-name="quotedbl" unicode="&#x22;" horiz-adv-x="418" 
d="M118 678q15 0 29 8q43 26 43 100l-3 83q-2 37 -17 60.5t-34.5 35t-40.5 11.5q-19 0 -36 -10q-35 -24 -37 -68q-2 -24 -2 -48q0 -31 4.5 -64t19.5 -58q34 -50 74 -50zM326 680q15 0 30 8.5t27 28.5q15 25 15 71l-3 83q-2 36 -18 61q-33 46 -75 46q-18 0 -35 -10
q-35 -25 -37 -68q-2 -24 -2 -48q0 -84 24 -122q33 -50 74 -50z" />
    <glyph glyph-name="numbersign" unicode="#" horiz-adv-x="832" 
d="M552 -40q41 0 75 31q20 21 25 47.5t5 95.5q0 7 2.5 9.5t8.5 2.5l17 -1l17 1q49 6 73 34t24 61q0 30 -19 56t-58 36q-25 5 -40 5q-10 0 -15.5 1.5t-5.5 10.5l1 38q0 21 3 23t8 2h14q26 0 60 9t56 50q9 19 9 38q0 33 -23 59q-34 38 -102 38l-4 -1q-11 0 -14 3.5t-3 19.5v45
h1l1 25q0 92 -49 124q-25 15 -54 15q-24 0 -46.5 -12t-36.5 -35.5t-17 -51.5t-3 -78q0 -43 -1.5 -47t-6 -4.5t-72.5 -0.5q-5 0 -7.5 3t-2.5 39q0 25 -2 76q-3 60 -33.5 88t-66.5 28q-39 0 -70 -29q-22 -22 -27 -56q-6 -41 -6 -137q0 -10 -6 -12t-17 -3q-18 0 -48.5 -10
t-46 -33t-15.5 -48q0 -26 16 -48q26 -39 94 -44q19 -4 20.5 -6t2.5 -44q0 -12 -2.5 -14.5t-10.5 -2.5q-81 0 -115 -41q-19 -23 -19 -52q0 -10 3 -21q14 -49 51.5 -63t66.5 -15l10 -1q10 -1 12.5 -2.5t2.5 -9.5l-1 -31q0 -18 2 -47q5 -55 35 -81t66 -26q40 0 73 30
q20 20 25 43.5t5 54.5q0 56 1.5 58.5t9.5 2.5l15 -1q50 0 52.5 -3.5t2.5 -11.5l-1 -40l1 -29q4 -57 34 -83.5t66 -26.5zM451 347l-70 2q-6 0 -7.5 3.5t-1.5 15.5v39q0 6 3.5 7.5t15.5 1.5h23v-1l29 1q9 0 11.5 -3.5t2.5 -14.5l-1 -43q0 -6 -5 -8z" />
    <glyph glyph-name="dollar" unicode="$" horiz-adv-x="560" 
d="M259 -59q34 0 62 22.5t28 62.5l-1 13q0 5 6 6q91 27 138.5 89.5t47.5 130.5q0 56 -33.5 103.5t-103.5 70.5q-47 12 -88 12h-15q-45 0 -79 18q-5 4 -10 7t-7.5 5.5t-2.5 8.5l1 18q4 28 23.5 50t51.5 22q33 -4 56.5 -23.5t26.5 -38.5q6 -32 29 -49t50 -17q23 0 43 12
q37 22 37 76q0 50 -28 95.5t-52 62.5q-45 33 -99 47q-8 2 -8 13q0 26 -10 59q-10 26 -30.5 38t-43.5 12q-29 0 -53 -18.5t-27 -54.5q-4 -32 -4 -43q0 -23 -26 -38q-57 -40 -87.5 -97t-30.5 -117q0 -55 28 -104t86.5 -80.5t149.5 -36.5q77 0 77 -16q-4 -29 -43 -44
q-35 -14 -69 -14q-37 0 -53 18q-29 45 -78 45q-35 0 -63.5 -23.5t-28.5 -61.5q0 -31 20 -56l7 -10q24 -33 53.5 -49t55.5 -24l10 -4q0 -51 27 -74.5t60 -23.5z" />
    <glyph glyph-name="percent" unicode="%" horiz-adv-x="647" 
d="M143 -4q43 0 75 44l21 34q20 33 204 326q123 196 151 245q33 56 33 74q0 7 -2 14l-1 4q-8 35 -39.5 64t-71.5 29q-39 0 -76 -42q-13 -14 -47 -65q-37 -56 -344 -538q-26 -45 -26 -76q0 -26 11.5 -43.5t25 -28.5t22.5 -16l5 -3q30 -22 59 -22zM114 629q42 1 69.5 28.5
t28.5 68.5q-1 40 -27.5 66t-66.5 27q-42 -1 -69.5 -28t-28.5 -68q1 -40 27.5 -66.5t66.5 -27.5zM533 11q39 0 66.5 27.5t27.5 68.5q0 40 -27 67t-66 27t-66.5 -27.5t-27.5 -67.5t27 -67.5t66 -27.5z" />
    <glyph glyph-name="ampersand" unicode="&#x26;" horiz-adv-x="765" 
d="M260 -22q84 0 193 39q37 14 48 19.5t14 5.5t11 -5q29 -19 55 -33q31 -17 61 -17q48 0 75.5 30.5t27.5 66.5q0 26 -16 49.5t-50 35.5q17 28 29 44.5t18.5 31t6.5 39.5l-1 16q-3 32 -29.5 52.5t-60.5 20.5q-51 0 -81 -45l-2 -6q-4 -15 -25 -33q-51 55 -88 115l15 13
q33 27 67.5 60.5t58.5 71.5t24 82q0 41 -30 87q-40 56 -97.5 80.5t-118.5 24.5q-76 0 -141 -30.5t-90 -79.5q-31 -64 -31 -112q0 -43 20.5 -79.5t53.5 -79.5l-27 -23q-31 -26 -50 -46.5t-40 -56.5q-40 -70 -40 -135q0 -56 28 -102t81.5 -73.5t130.5 -27.5zM274 167
q-20 0 -35 2l-6 1q-8 2 -8 14q0 17 15.5 46t45.5 50q23 -32 47 -62l26 -35q-53 -16 -85 -16zM335 564q-25 37 -25 43t5 13q9 15 36 15q20 0 40 -6l9 -2q-29 -35 -65 -63z" />
    <glyph glyph-name="quotesingle" unicode="'" horiz-adv-x="209" 
d="M112 672q32 0 55 33q16 24 18 55q3 27 4 74v28q0 34 -14 57q-25 47 -67 51l-10 1q-15 0 -30 -8q-37 -20 -42.5 -64t-5.5 -81l1 -31q3 -35 16 -61q30 -52 75 -54z" />
    <glyph glyph-name="parenleft" unicode="(" horiz-adv-x="326" 
d="M210 -62q39 0 66 31t27 73q0 36 -26 74q-64 86 -64 235q0 144 51 276q13 34 17.5 44t6.5 15.5t4 12.5t5.5 20.5t8.5 34.5q-1 1 -3 1v2q0 42 -22.5 67t-54.5 25q-19 0 -39 -9q-69 -39 -118 -177.5t-49 -304.5q0 -99 22 -194q21 -84 49 -133.5t59 -71t60 -21.5z" />
    <glyph glyph-name="parenright" unicode=")" horiz-adv-x="326" 
d="M116 -48q-39 0 -66.5 30.5t-27.5 72.5q0 37 27 75q64 86 64 235q0 144 -52 276q-14 36 -19.5 49t-8.5 25l-13 53l2 1q0 43 23 68.5t55 25.5q19 0 39 -9q50 -27 83 -97q38 -76 61 -176.5t23 -209.5q0 -97 -22 -193q-21 -84 -49.5 -133.5t-59.5 -71t-59 -21.5z" />
    <glyph glyph-name="asterisk" unicode="*" horiz-adv-x="277" 
d="M207 702q11 0 19.5 9.5t8.5 22.5q0 5 -2 10q-8 26 -14 52q0 4 3 6l14 12q21 19 21 39t-25 27q-7 2 -16 2h-5q-5 1 -10.5 1t-8.5 6q-6 16 -16 30l-6 9q-10 13 -26 13q-27 0 -43 -42l-4 -8q-5 -10 -15 -11q-48 0 -57 -17q-5 -9 -5 -18q0 -7 4 -11t7 -8q6 -9 15 -15
q4 -4 4 -8l-1 -6q-2 -7 -6 -13q-6 -11 -11 -23q-3 -8 -8 -17q-3 -5 -3 -10q0 -8 6 -16.5t14 -12t15 -3.5q14 0 26 7l3 2q22 11 43 23l7 2q5 0 8 -3q7 -6 15 -11l8 -6q16 -14 41 -14z" />
    <glyph glyph-name="plus" unicode="+" horiz-adv-x="592" 
d="M312 104l12 1q47 6 77 38t30 77l-2 27q0 5 2 6.5t21 1.5q46 0 79 28q37 31 41 86q0 38 -25.5 68.5t-67.5 40.5q-23 5 -55 5q-12 0 -16 3t-6 48q-3 40 -30.5 66t-69.5 30q-43 0 -71.5 -22.5t-35.5 -58t-7 -68.5q0 -8 -6 -8l-15 -1q-35 -3 -69 -11q-72 -23 -78 -94
q0 -44 30 -72.5t78 -30.5q61 0 61 -8l5 -46q5 -47 39 -76.5t79 -29.5z" />
    <glyph glyph-name="comma" unicode="," horiz-adv-x="251" 
d="M87 -148q17 0 39 11.5t37.5 34.5t38.5 66l13 24q16 33 16 62q0 38 -22.5 63t-52.5 25l-9 -1q-60 -11 -114 -135q-13 -32 -13 -61q0 -37 18.5 -63t48.5 -26z" />
    <glyph glyph-name="hyphen" unicode="-" horiz-adv-x="437" 
d="M166 280l52 1v1h64q32 0 48 2t32 10q27 14 41 37t14 49q0 37 -28 67.5t-82 30.5h-38q-73 0 -110 -1t-54 -4t-29 -9q-29 -15 -42.5 -38t-13.5 -48q0 -27 15.5 -51t45.5 -36q38 -11 85 -11z" />
    <glyph glyph-name="hyphen" unicode="&#xad;" horiz-adv-x="437" 
d="M166 280l52 1v1h64q32 0 48 2t32 10q27 14 41 37t14 49q0 37 -28 67.5t-82 30.5h-38q-73 0 -110 -1t-54 -4t-29 -9q-29 -15 -42.5 -38t-13.5 -48q0 -27 15.5 -51t45.5 -36q38 -11 85 -11z" />
    <glyph glyph-name="period" unicode="." horiz-adv-x="216" 
d="M108 -101q38 1 62.5 26t25.5 62q-1 37 -26 61.5t-63 25.5q-37 -1 -61.5 -25.5t-25.5 -61.5q1 -38 26 -62.5t62 -25.5z" />
    <glyph glyph-name="slash" unicode="/" horiz-adv-x="583" 
d="M132 -27q39 0 65.5 31.5t48.5 70.5l75 141q109 199 217 419q25 46 25 94q0 62 -54 91q-35 17 -61 17q-28 0 -47 -14q-32 -23 -59 -76q-9 -14 -153 -290l-149 -287q-20 -47 -20 -82q0 -67 76 -107q20 -8 36 -8z" />
    <glyph glyph-name="zero" unicode="0" horiz-adv-x="633" 
d="M323 -31q-82 0 -149.5 56t-107.5 149.5t-40 206.5q0 114 40 207.5t107.5 149.5t149.5 56q83 0 150.5 -56t107.5 -149.5t40 -207.5q0 -113 -40 -206.5t-107.5 -149.5t-150.5 -56zM326 296q14 0 24.5 29.5t10.5 72.5q0 42 -10.5 72t-24.5 30q-15 0 -25.5 -30t-10.5 -72
q0 -43 10.5 -72.5t25.5 -29.5z" />
    <glyph glyph-name="one" unicode="1" horiz-adv-x="379" 
d="M230 -24q36 0 67.5 28.5t46.5 88.5q1 11 2 80q2 136 2 310l2 165q0 49 -6.5 72t-26.5 41q-42 35 -88 35q-47 0 -87.5 -37t-95.5 -97q-38 -44 -38 -82q0 -37 27 -62t67 -25l4 1q4 0 6 -12q7 -26 7 -164l-1 -52q0 -38 2.5 -70.5t2.5 -63.5l-1 -17q0 -67 33.5 -103t74.5 -36
z" />
    <glyph glyph-name="two" unicode="2" horiz-adv-x="595" 
d="M222 -21q49 0 107 2l88 2q77 2 121 34t44 82q0 53 -19.5 77t-47.5 31t-56 7h-37q-34 0 -34 13q0 10 13 22.5t25 22t16 13.5q73 56 108.5 119.5t35.5 128.5q0 113 -103 211q-63 56 -149 56q-73 0 -142 -35t-115 -86.5t-52 -104.5l-1 -14q0 -49 37 -93.5t90 -44.5t103 51
l22 20q43 36 55 36q2 0 3 -3v-1q10 -8 10 -20q0 -33 -53.5 -85.5t-115.5 -104.5q-47 -40 -79 -72q-85 -56 -85 -148q0 -12 2 -24q7 -57 60.5 -74.5t148.5 -17.5z" />
    <glyph glyph-name="three" unicode="3" horiz-adv-x="555" 
d="M289 -25q71 0 128 24t91 70.5t34 112.5q0 20 -3 42q-19 90 -91 152q-4 3 -4 6t7 11q80 91 80 195q0 61 -36.5 113.5t-117.5 79.5q-39 12 -78 12q-75 0 -143 -37.5t-111 -97.5q-27 -42 -27 -76q0 -64 65 -85q34 -10 55 -10q19 0 34.5 8.5t39.5 25.5q7 5 13.5 9t12.5 4
q7 0 13 -5t7 -14q0 -8 -12.5 -16.5t-43.5 -26.5q-15 -9 -34.5 -17.5t-32.5 -17.5q-31 -27 -31 -67q0 -35 20.5 -68t55.5 -43q15 -4 29.5 -5t24 -3t10 -6.5t0.5 -7.5t-2 -7q-3 -8 -23 -8l-13 1q-51 15 -93 15q-68 0 -86 -60q-4 -12 -4 -29q0 -33 18.5 -72t64.5 -63
q96 -39 183 -39z" />
    <glyph glyph-name="four" unicode="4" horiz-adv-x="588" 
d="M430 -16q43 0 79 36t41 110q10 201 10 299q0 52 -3 202q0 58 -26 110q-24 42 -52.5 53.5t-50.5 11.5q-15 0 -31.5 -0.5t-39 -7t-59.5 -36t-99 -96.5t-156 -185q-41 -55 -41 -100q0 -33 18 -58q28 -39 84 -50q19 -4 60 -6t131 -4q6 0 8 -2.5t2 -10.5v-16q-2 -18 -2 -58
l1 -35q3 -78 41.5 -117.5t84.5 -39.5zM309 428l-10 1q-7 1 -7 7q0 2 2 4l13 18q13 21 19 21q2 0 4 -4q3 -12 3 -21q0 -24 -24 -26z" />
    <glyph glyph-name="five" unicode="5" horiz-adv-x="607" 
d="M318 -15q80 0 146 39.5t108 126.5q27 59 27 110q0 57 -29 101t-76 72t-103 37q-45 8 -45 35q0 11 5 22l3 11q13 1 35 1.5t51 2.5q85 0 120.5 32.5t38.5 85.5q0 51 -27.5 91.5t-69.5 46.5q-63 5 -347 5q-83 -4 -101 -82q-4 -16 -9 -69t-5 -114q0 -27 2 -63q0 -52 9 -85
t46 -55q11 -5 40 -5l92 2q28 0 44 -4q42 -17 42 -55q0 -18 -7.5 -31.5t-15.5 -16.5t-16 -3q-16 0 -33.5 9t-36 20.5t-36.5 21t-36 9.5l-7 -1q-52 -9 -76.5 -43t-24.5 -73q0 -46 33 -79q89 -74 206 -98q27 -4 53 -4z" />
    <glyph glyph-name="six" unicode="6" horiz-adv-x="620" 
d="M341 -18q80 0 144.5 41t101.5 104.5t37 131.5q0 81 -55 141q-31 35 -64.5 46t-64.5 11q-20 0 -36.5 -1.5t-28.5 -1.5q-37 0 -37 27q0 22 18 50.5t39 28.5q10 0 20 -11q35 -38 77 -38q34 0 62.5 25.5t30.5 77.5q0 49 -31 95.5t-84 76.5t-118 30q-86 0 -167 -58
q-81 -60 -120 -157.5t-39 -204.5q0 -136 61 -251.5t181 -152.5q37 -10 73 -10zM356 203q-7 0 -12 8t-9 16l-2 8q0 13 11 23t21 10q7 0 13 -6l2 -4q9 -16 9 -23q0 -12 -11 -22t-22 -10z" />
    <glyph glyph-name="seven" unicode="7" horiz-adv-x="572" 
d="M213 -24q38 0 73 27q24 20 42 54.5t48 107.5l62 145q127 291 138 321q7 17 9 28l1 3q2 10 2 19q0 30 -20.5 54.5t-49.5 40t-55.5 19t-85.5 3.5l-156 -2q-25 2 -47 2q-104 0 -144 -48q-26 -31 -26 -69l1 -9q0 -67 63 -101q42 -23 94 -23q18 0 40 2q32 3 101 3
q-13 -28 -56.5 -107t-86 -162.5t-56.5 -130.5q-7 -27 -7 -50q0 -60 36 -93.5t80 -33.5z" />
    <glyph glyph-name="eight" unicode="8" horiz-adv-x="553" 
d="M287 -14q71 0 130 39t93.5 103t34.5 139q0 83 -53 168q-5 6 -5 11t4 10q36 61 36 122q0 57 -31 114q-69 115 -204 115h-5q-84 0 -147 -63t-63 -153q0 -50 24 -103q2 -5 2 -10t-4 -10q-78 -84 -78 -198q0 -81 42 -152.5t118 -107.5q54 -24 106 -24zM293 230
q-18 0 -26.5 15t-8.5 34q0 20 9.5 37t29.5 17q18 0 27.5 -16t9.5 -35q0 -20 -10 -35.5t-31 -16.5zM309 549q-15 0 -22.5 10.5t-7.5 23.5t7.5 23.5t24.5 10.5q12 0 19 -10.5t7 -22.5q0 -13 -7 -24t-21 -11z" />
    <glyph glyph-name="nine" unicode="9" horiz-adv-x="598" 
d="M233 -22q54 0 103 39q121 102 186.5 240.5t65.5 264.5q0 99 -43.5 173.5t-134.5 102.5q-51 14 -97 14q-84 0 -152 -37.5t-107.5 -99t-39.5 -134.5q0 -15 2 -30q12 -88 74.5 -149.5t154.5 -78.5l10 -2q-30 -39 -57 -71q-34 -38 -55.5 -70.5t-21.5 -67.5l2 -18
q5 -32 36 -54t74 -22zM318 494q-20 0 -29 12.5t-9 28.5q0 18 11 34.5t30 16.5q16 0 25 -14.5t9 -31.5t-9 -31.5t-28 -14.5z" />
    <glyph glyph-name="colon" unicode=":" horiz-adv-x="232" 
d="M115 403q41 1 68 28t29 68q-1 40 -28 66.5t-67 27.5q-40 -1 -67 -27.5t-28 -67.5q1 -40 27.5 -66.5t65.5 -28.5zM111 155q40 1 66 26.5t27 65.5q-1 39 -27 65t-65 27q-39 -1 -64.5 -27t-27.5 -65q1 -39 26.5 -65t64.5 -27z" />
    <glyph glyph-name="semicolon" unicode=";" horiz-adv-x="235" 
d="M96 79q31 0 63.5 38t53.5 125q-1 64 -42 88q-19 11 -36 11q-35 0 -60 -32.5t-39 -71t-14 -59.5q2 -45 23 -72t51 -27zM116 404q42 1 69.5 29t29.5 70q-1 41 -28 68.5t-68 29.5q-42 -1 -69.5 -29t-29.5 -70q1 -41 28 -69t68 -29z" />
    <glyph glyph-name="semicolon" unicode="&#x37e;" horiz-adv-x="235" 
d="M96 79q31 0 63.5 38t53.5 125q-1 64 -42 88q-19 11 -36 11q-35 0 -60 -32.5t-39 -71t-14 -59.5q2 -45 23 -72t51 -27zM116 404q42 1 69.5 29t29.5 70q-1 41 -28 68.5t-68 29.5q-42 -1 -69.5 -29t-29.5 -70q1 -41 28 -69t68 -29z" />
    <glyph glyph-name="less" unicode="&#x3c;" horiz-adv-x="431" 
d="M304 111q48 0 77.5 31t29.5 71q0 49 -50 93l-90 76q74 74 124 167q12 23 12 47q0 25 -13.5 48t-40.5 35q-20 8 -36 8q-32 0 -53.5 -18.5t-33 -33t-95.5 -93.5q-65 -61 -90 -91t-25 -63l2 -21q3 -39 29 -68l19 -17q32 -32 66 -59q61 -47 86.5 -70.5t41 -32.5t40.5 -9z" />
    <glyph glyph-name="equal" unicode="=" horiz-adv-x="457" 
d="M262 401q65 0 84 2q45 4 68 35t23 67q0 32 -17 59q-32 49 -160 49q-44 0 -101 -5l-30 -2q-55 -5 -82 -35.5t-27 -67.5q0 -24 11.5 -45.5t36.5 -35t83.5 -17.5t110.5 -4zM262 136q65 0 84 2q45 4 68 35t23 67q0 32 -17 59q-32 49 -160 49q-44 0 -101 -5l-30 -2
q-55 -5 -82 -35.5t-27 -67.5q0 -24 11.5 -45.5t36.5 -35t83.5 -17.5t110.5 -4z" />
    <glyph glyph-name="greater" unicode="&#x3e;" horiz-adv-x="392" 
d="M124 70q40 0 77 34q13 13 44 49t62 71.5t42 49.5q23 30 23 65q0 54 -41 98l-102 103q-28 30 -42 43q-39 36 -77 36q-36 0 -63 -28t-27 -65q0 -29 22 -58q14 -17 30 -42q25 -40 64 -84q-31 -38 -57 -65t-42 -49.5t-16 -51.5q0 -11 3 -25q10 -38 38 -59.5t62 -21.5z" />
    <glyph glyph-name="question" unicode="?" horiz-adv-x="515" 
d="M197 190q45 0 86 32q90 72 144 138.5t65 143.5q3 24 3 48q0 73 -28 140t-83.5 110t-138.5 43q-57 0 -108.5 -28t-84 -75.5t-32.5 -108.5q2 -65 43 -96q37 -29 78 -29q14 0 27 3q24 7 47 16l1 -13q0 -14 -7.5 -24t-22.5 -25q-42 -43 -64 -88.5t-22 -89.5q2 -52 34 -76
q27 -21 63 -21zM198 -97q14 0 29 4q45 13 68 47t23 73q0 27 -11.5 52.5t-33.5 44.5q-31 23 -69 23q-42 0 -78 -28q-41 -31 -45 -98q0 -46 34.5 -82t82.5 -36z" />
    <glyph glyph-name="at" unicode="@" horiz-adv-x="1018" 
d="M403 -192q157 0 200 52q24 29 24 61q0 31 -20 56t-58 33l-25 2q-30 0 -66 -4.5t-63 -4.5q-18 0 -30 3q-75 22 -112 92q-42 91 -42 175q0 102 51 183.5t132.5 129t173.5 47.5q69 0 138 -31q42 -22 61.5 -68.5t19.5 -98.5q0 -79 -38 -141q-10 -14 -16 -14q-9 0 -11 25
t-2 53v18l1 8q1 8 1.5 20t0.5 24l-1 21q-4 39 -29.5 61t-57.5 22q-43 0 -73 -39q-5 -6 -9 -6q-6 0 -13.5 5.5t-21 11t-36.5 5.5h-5q-101 -7 -155.5 -82t-54.5 -163q0 -60 27.5 -112.5t86.5 -79.5q38 -16 68 -16q46 0 78 24.5t55 51.5q7 7 10 7t6 -4q62 -52 130 -52
q54 0 103 28t82 80q85 135 85 275q0 76 -29 147q-61 106 -166.5 161t-227.5 55q-131 0 -257.5 -67t-210.5 -204q-87 -149 -87 -305q0 -130 55.5 -234t141.5 -156q42 -26 84 -40.5t102 -14.5zM469 249q-5 0 -10 5.5t-5 14.5v7h-2l20 55q7 13 13 13q14 -3 16 -16l1 -10
q0 -21 -10 -45t-23 -24z" />
    <glyph glyph-name="A" unicode="A" horiz-adv-x="636" 
d="M81 -9q40 0 70 24.5t49 65.5q2 6 6 10t29 4l74 -1h83q24 0 33 -23q19 -38 50 -56.5t63 -18.5q30 0 55 14t39 41q10 21 10 42q0 26 -19 74q-26 68 -88 257q-44 131 -77 220.5t-59 122.5q-37 41 -86 41q-42 0 -76 -32q-6 -6 -11 -13q-10 -14 -37 -81q-13 -30 -211 -529
q-10 -26 -10 -52q0 -32 15 -64q13 -26 31.5 -33.5t35.5 -9.5l8 -1q12 -2 23 -2zM309 297q-17 0 -17 4q5 10 14 26t14 29q3 0 5 -1q8 -24 16 -39q6 -11 6 -15q0 -2 -2 -2z" />
    <glyph glyph-name="B" unicode="B" horiz-adv-x="619" 
d="M315 2q62 0 106 10q92 25 138 94t46 149q0 60 -25.5 116.5t-76.5 95.5q-8 6 -12 10t-4 9q0 6 6 18q20 47 20 93q0 71 -43.5 127t-121.5 78q-39 10 -77 10q-26 0 -52 -2t-55 -3q-49 -2 -85 -25.5t-45 -73.5q-4 -25 -5 -246l-1 -67l1 -282q0 -57 30 -83.5t66 -26.5z
M289 216q-5 0 -5 6l-1 90q0 13 1 20t7 7q19 -1 31 -18t12 -41q0 -19 -9.5 -36.5t-31.5 -26.5zM285 521v91q32 0 32 -46q0 -16 -6 -30.5t-26 -14.5z" />
    <glyph glyph-name="C" unicode="C" horiz-adv-x="604" 
d="M305 -16q70 0 135.5 33.5t108.5 99t43 126.5q0 69 -61 99q-29 12 -50 12q-31 0 -51 -17t-34 -36q-11 -13 -20.5 -22.5t-20.5 -10.5q-16 0 -39.5 12t-41 38.5t-17.5 70.5q1 24 10 51.5t25.5 48t37.5 20.5q13 0 26 -9q28 -16 57 -16q22 0 54 10q37 13 55 42t18 64
q0 39 -23 76q-41 64 -98 95t-118 31q-66 0 -127.5 -35.5t-103.5 -106.5q-74 -127 -74 -280q0 -113 42 -217q39 -89 112 -134t155 -45z" />
    <glyph glyph-name="D" unicode="D" horiz-adv-x="596" 
d="M141 -18q227 0 337 134q95 115 96 290q0 99 -40 191t-128.5 150t-233.5 60q-52 0 -93.5 -43.5t-45.5 -105.5q-3 -75 -3 -257l1 -131q0 -130 1 -146q3 -30 17 -62.5t38 -56t54 -23.5zM272 308q-3 0 -3 1q1 12 1 177q1 3 4 3q7 0 19.5 -9t22.5 -29t10 -55q0 -33 -11 -52.5
t-24.5 -27.5t-18.5 -8z" />
    <glyph glyph-name="E" unicode="E" horiz-adv-x="561" 
d="M209 -22q43 0 101 2q42 1 93 1.5t88.5 31t37.5 85.5t-28.5 92t-72.5 43q-91 0 -143 1q-7 1 -8.5 7t-1.5 16t2 14t11 5t30 2l46 2h36.5t47.5 7q54 16 54 113q0 42 -16 62q-27 32 -88 32q-66 0 -87 1.5t-25 6.5t-4 15v4l-1 16q0 7 9 9q20 0 59 3q51 4 90 4q45 0 67 23
q34 36 34 93q0 53 -23 83q-44 54 -140 54h-240q-96 -6 -106 -79q-2 -16 -2 -101q0 -46 0.5 -94t1 -81t1.5 -33l-1 -204q0 -103 11 -153.5t49 -66.5t118 -16z" />
    <glyph glyph-name="F" unicode="F" horiz-adv-x="541" 
d="M154 -21q51 0 85 34.5t34 108.5q3 69 3 100q0 41 5.5 44.5t121.5 3.5q35 0 56.5 34t21.5 86q0 78 -53 101q-20 8 -48 8h-12q-72 0 -79 7q-4 3 -4 11q0 35 6 38.5t15 3.5q62 0 111 3q38 3 70 23q49 32 49 105q0 41 -15 66t-36.5 37t-42.5 12l-117 -1q-85 -1 -191 -1
q-39 0 -64 -24.5t-30 -60.5q-1 -7 -2.5 -11.5t-1.5 -14.5v-21q-3 -70 -3 -188q-1 -21 -1 -45h-2q0 -227 -1 -274q0 -58 1 -63q0 -63 32.5 -92.5t91.5 -29.5z" />
    <glyph glyph-name="G" unicode="G" horiz-adv-x="608" 
d="M300 -7q72 0 139.5 35.5t111 105t43.5 172.5q0 31 -11 58q-19 40 -51 49.5t-63 9.5h-22l-37 -3q-40 -4 -62 -9q-26 -8 -43.5 -32t-17.5 -53q0 -33 30 -61q5 -4 10 -13t5 -18q0 -8 -4 -11.5t-13 -5.5q-18 0 -40 32q-21 36 -21 96q0 42 9.5 86.5t32.5 75.5t63 31
q30 0 70 -27q15 -9 33 -9q30 0 55 22q33 29 33 81q0 82 -74.5 142t-170.5 60q-64 0 -127 -34.5t-110 -113.5q-73 -127 -73 -271q0 -101 34 -187t91 -140q37 -34 83.5 -51t96.5 -17z" />
    <glyph glyph-name="H" unicode="H" horiz-adv-x="654" 
d="M147 -16q48 0 91.5 26t48.5 83q1 49 1 82t1.5 49.5t9.5 16.5l36 1q9 0 11.5 -1.5t2.5 -5.5v-34q0 -87 5 -127q8 -44 43 -66.5t78 -22.5q30 0 59 13q64 28 64 101q0 167 2 273q1 90 1 269q0 64 -20 99q-36 63 -111 63q-30 0 -53.5 -8.5t-32.5 -18.5q-22 -28 -27.5 -69.5
t-5.5 -79.5l2 -133q0 -60 -10 -60l-31 -1q-14 0 -17 3.5t-3 14.5l2 170l-1 62q0 44 -23 71.5t-57.5 40t-68.5 12.5q-48 0 -78 -41.5t-32 -111.5l-4 -367q1 -61 1 -148q0 -50 5 -78t25 -49q33 -28 86 -28z" />
    <glyph glyph-name="I" unicode="I" horiz-adv-x="342" 
d="M148 -9q35 0 66 13.5t50.5 49.5t19.5 102q4 104 4 228q0 223 -5 316q-4 48 -39.5 79.5t-87.5 31.5t-85 -33t-38 -86q-2 -15 -3 -29.5t-1.5 -36.5t-0.5 -64l3 -384l-1 -27q0 -72 25 -116t93 -44z" />
    <glyph glyph-name="J" unicode="J" horiz-adv-x="499" 
d="M219 -11q65 0 121 33.5t79 91.5q16 40 20.5 87.5t7.5 152.5l3 104h-2q0 42 4 170l1 40q0 75 -33 109t-73 34q-41 0 -76 -32.5t-35 -90.5q-11 -134 -13 -375q0 -7 1.5 -18.5t1.5 -24.5q0 -22 -6 -31t-22 -12q-23 0 -23 37l2 23q0 44 -32 72t-70 28q-27 0 -49.5 -16.5
t-31 -43t-8.5 -57.5q0 -40 10.5 -79.5t23.5 -68.5q33 -70 87 -101.5t112 -31.5z" />
    <glyph glyph-name="K" unicode="K" horiz-adv-x="658" 
d="M529 -6q41 0 72.5 27t31.5 72q0 54 -49 112q-61 58 -100 97l-37 36q-31 29 -31 37q1 6 5 11l100 105q89 85 117 147q10 27 10 53q0 51 -32.5 87t-73.5 36q-30 0 -57.5 -22.5t-82.5 -76.5l-127 -128q0 19 -1 37v18q0 28 -2 63q0 40 -36.5 73t-83.5 35q-36 0 -66.5 -27
t-41.5 -65q-15 -65 -15 -287q0 -95 1 -177l1 -108q10 -154 115 -154l16 -1q39 0 69.5 28.5t30.5 79.5q0 12 -1 24t-1 25l1 19l2 1l188 -149q39 -28 78 -28z" />
    <glyph glyph-name="L" unicode="L" horiz-adv-x="538" 
d="M329 -16q106 0 150.5 17.5t55.5 81.5l1 24q0 62 -37 86t-98.5 26.5t-89.5 3.5q-16 0 -24.5 0.5t-11 1.5t-2.5 4q2 20 3 110t1 149.5t2 95.5v32q1 14 1 23t1 15v14h1q-1 28 -10.5 59.5t-35.5 55t-81 23.5q-49 0 -76.5 -22t-38.5 -53.5t-11 -61.5v-573q0 -51 36 -81t75 -30
z" />
    <glyph glyph-name="M" unicode="M" horiz-adv-x="852" 
d="M152 -17q62 0 98.5 37.5t39.5 106.5l3 105q0 6 6 6l5 -1q9 -7 22 -21q18 -19 41 -38.5t49 -19.5q21 2 43.5 18.5t42.5 35.5t36 30l6 2q11 0 13 -10l-1 -16q-2 -13 -2 -29q4 -76 11.5 -110.5t29.5 -57.5q38 -34 86 -34q34 0 62.5 18.5t38.5 58.5l1 4q2 6 4 19
q12 69 14 504q0 62 -4.5 97t-19.5 66q-28 48 -82 48q-27 0 -55.5 -14.5t-52.5 -47.5q-89 -125 -123 -174q-36 -53 -42.5 -57.5t-8.5 -4.5t-5.5 3t-6.5 8l-168 240q-20 27 -45 39.5t-50 12.5q-39 0 -67 -29q-18 -18 -29 -54t-13 -123q0 -352 -1 -420v-50q0 -24 1 -30
q11 -57 50.5 -87.5t72.5 -30.5z" />
    <glyph glyph-name="N" unicode="N" horiz-adv-x="792" 
d="M612 -22q55 0 81.5 30.5t35.5 103t9 197.5q0 169 -1 228l1 149q0 41 -37.5 78.5t-91.5 37.5q-97 0 -126 -99q-16 -56 -19 -204q0 -27 -15 -30q-7 0 -17 13l-27 37q-160 227 -202 261q-31 22 -70 22q-25 0 -48 -12.5t-38 -41.5t-16 -79q-1 0 -1.5 -73t-1 -171.5
t-0.5 -176.5q0 -110 1 -110q0 -29 9 -67q22 -93 120 -93q62 0 92.5 38.5t30.5 87.5q0 43 5 129v5q0 5 3.5 12t8.5 7q4 0 8 -4q38 -40 70 -88l30 -41q31 -44 85.5 -92.5t120.5 -53.5z" />
    <glyph glyph-name="O" unicode="O" horiz-adv-x="614" 
d="M293 -21q-82 0 -149.5 55.5t-108 149t-40.5 207.5q0 113 40.5 207t108 149.5t149.5 55.5t149.5 -55.5t107.5 -149.5t40 -207q0 -114 -40 -207.5t-107.5 -149t-149.5 -55.5zM295 305q15 0 25 23.5t10 57.5q0 33 -10 57t-25 24q-14 0 -24.5 -24t-10.5 -57q0 -34 10.5 -57.5
t24.5 -23.5z" />
    <glyph glyph-name="P" unicode="P" horiz-adv-x="618" 
d="M153 -14q50 0 89 39.5t47 94.5q8 69 8 88q0 14 1.5 15.5t20.5 1.5q102 12 165.5 57t92.5 109.5t29 130.5q0 100 -59 175q-43 51 -81 74.5t-91 29.5t-147 6h-87q-33 0 -68.5 -31t-40.5 -80q-3 -43 -3 -130v-107q1 -106 1 -329v-8q0 -95 86 -129q19 -7 37 -7zM308 442
q-2 0 -7 5l-2 1q-1 2 -1 10l1 76q1 17 10 17q12 0 25 -18.5t13 -32.5q0 -15 -7.5 -28t-17 -21.5t-14.5 -8.5z" />
    <glyph glyph-name="Q" unicode="Q" horiz-adv-x="654" 
d="M552 -21q-31 0 -57.5 14.5t-49.5 33.5q-3 2 -6 2l-5 -1q-65 -49 -140 -49q-82 0 -150 55.5t-108 149t-40 207.5t40 207.5t108 149t150 55.5t149.5 -55.5t107.5 -149t40 -207.5q0 -52 -8 -85.5t-24 -72.5v-3q0 -5 3 -10l68 -81q24 -28 24 -60q0 -24 -16 -57
q-11 -20 -34.5 -31.5t-51.5 -11.5zM296 305q14 0 24.5 23.5t10.5 57.5q0 33 -10.5 57t-24.5 24q-15 0 -25 -24t-10 -57q0 -34 10 -57.5t25 -23.5z" />
    <glyph glyph-name="R" unicode="R" 
d="M153 -8q34 0 64.5 18.5t48.5 56.5q16 46 16 85v12q0 15 1 25l5 2q11 -19 59 -79q51 -65 77 -88q39 -29 77 -29q44 0 77.5 31.5t33.5 73.5q0 25 -15 52q-51 72 -77 103q-29 35 -29 46q0 7 18.5 22t51.5 53q54 71 54 157q0 89 -59.5 168.5t-181.5 104.5q-59 9 -118 9
q-36 0 -72 -2q-42 -2 -76.5 -19t-56 -48.5t-21.5 -79.5l-2 -330q0 -31 0.5 -44.5t0.5 -22t0.5 -22t0.5 -122.5q0 -7 3 -18.5t5 -20.5q12 -48 45 -71t70 -23zM307 437q-10 2 -10 49q0 72 11 72h2q14 0 25 -21.5t11 -38.5q0 -23 -10.5 -41t-28.5 -20z" />
    <glyph glyph-name="S" unicode="S" horiz-adv-x="598" 
d="M259 -15q112 3 183.5 41.5t105.5 99.5t34 126q0 75 -42 142q-51 80 -156 107q-37 9 -69 27t-35 60q1 10 8 18t14 8q9 -2 14 -16t25 -42q27 -36 75 -36q27 0 51.5 13t37.5 37.5t13 51.5q0 41 -24.5 80.5t-65.5 66.5q-63 38 -137 38q-85 0 -162.5 -51t-107.5 -156
q-7 -28 -7 -52q0 -125 172 -211q19 -11 26 -16q62 -42 62 -70q0 -10 -7.5 -15.5t-17.5 -5.5q-15 0 -27 13q-64 68 -118 68q-41 0 -69.5 -30.5t-28.5 -79.5q0 -78 78 -158q46 -42 136 -54q33 -4 39 -4z" />
    <glyph glyph-name="T" unicode="T" horiz-adv-x="653" 
d="M314 -9q55 0 90.5 35.5t38.5 99.5l1 161l-1 147q0 74 3 95q1 13 8 17.5t11 4.5q29 0 63.5 3t60.5 17q60 35 60 123q0 51 -27 77.5t-60 35.5t-53 9h-348q-53 0 -102 -22q-74 -33 -74 -114q0 -43 28 -75t57 -43q15 -6 33 -8.5t56 -2.5q10 0 20.5 -3t11.5 -15q7 -136 7 -373
v-44q0 -1 4 -20.5t16 -43.5t35 -42.5t61 -18.5z" />
    <glyph glyph-name="U" unicode="U" horiz-adv-x="663" 
d="M319 -19q92 0 157.5 49.5t101 122.5t35.5 145q7 105 7 186q0 61 -2 108l-1 66q0 48 -22.5 80t-53 47.5t-55.5 15.5q-47 0 -83.5 -42t-39.5 -97q-3 -107 -3 -202q0 -100 -4 -134.5t-27 -34.5q-22 0 -27.5 31.5t-5.5 77.5v67l-1 50l1 66q0 63 -12 109q-5 12 -15 32
q-39 75 -104 75q-89 0 -121 -73q-26 -59 -26 -228q0 -92 7 -191q3 -50 20.5 -106.5t52 -106t89 -81.5t132.5 -32z" />
    <glyph glyph-name="V" unicode="V" horiz-adv-x="613" 
d="M289 1q40 0 69 23t53 94l93 271q89 263 101 303q5 16 5 31q0 31 -19.5 56t-56.5 36q-18 5 -33 5q-44 0 -74 -33t-53.5 -87t-46.5 -120l-26 -71q-3 -6 -8 -6t-8 6q-21 50 -38 98q-21 59 -43 106.5t-51 76.5t-73 29q-36 0 -55 -17t-25.5 -42t-6.5 -50q0 -41 8 -67l67 -229
q62 -216 87 -291q43 -122 134 -122z" />
    <glyph glyph-name="W" unicode="W" horiz-adv-x="874" 
d="M250 -15q35 0 67 25.5t48 60.5l53 116q4 6 9 6q6 0 9.5 -7.5t6.5 -16.5q27 -79 42 -108q38 -73 98 -73q49 0 83 51q17 27 107 328q83 280 92 318l2 20q0 45 -35.5 72t-73.5 27q-44 0 -74 -34.5t-52 -88.5t-41.5 -113t-40.5 -110q-1 -2 -3 -2q-3 0 -5 3q-6 15 -20 43
q-39 73 -83 73q-26 0 -50 -22.5t-41 -49t-25 -42.5l-4 -2q-3 0 -4.5 4t-36.5 130q-47 164 -114 197q-28 15 -53 15q-120 0 -120 -98q0 -12 6.5 -38t35.5 -131q35 -125 125 -454q14 -54 39 -76.5t53 -22.5z" />
    <glyph glyph-name="X" unicode="X" horiz-adv-x="703" 
d="M110 0q55 0 87 40l116 152q7 8 17 8t17 -8q70 -89 115 -131l23 -25q32 -35 90 -35q49 0 81.5 26t32.5 62q0 51 -61 129q-51 74 -77 105q-17 21 -28.5 37.5t-20.5 38.5q-5 10 -5 20q0 11 8.5 21.5t22.5 27.5q119 152 138 184q20 29 20 57q0 45 -39 79t-84 34
q-50 0 -85 -48q-12 -16 -29 -43q-24 -39 -74 -111q-9 -10 -20 -10t-20 10q-71 97 -123 148.5t-109 51.5q-46 0 -73 -31t-27 -67q0 -40 30.5 -89t79.5 -115q30 -39 63 -86q6 -9 6 -19q0 -8 -4.5 -16.5t-152.5 -230.5q-4 -5 -11 -26.5t-7 -47.5q0 -52 39 -75q6 -6 23.5 -11.5
t40.5 -5.5z" />
    <glyph glyph-name="Y" unicode="Y" horiz-adv-x="604" 
d="M280 -5q30 0 58.5 20t40.5 49q23 60 23 143q0 31 -1.5 58.5t-1.5 49.5q0 40 11 61q132 196 168 256q15 25 20 38l2 5q7 18 7 37q0 41 -30.5 72.5t-71.5 31.5q-34 0 -70 -29q-12 -11 -38 -48q-32 -45 -97 -126q-6 -6 -14 -6q-9 0 -15 9q-12 22 -33 51l-52 75
q-21 28 -54 50.5t-67 22.5q-35 0 -60 -29.5t-25 -59.5q0 -36 28 -90t83 -146l61 -105q8 -20 8 -67l-1 -88q0 -50 5 -102q9 -65 42.5 -99t73.5 -34z" />
    <glyph glyph-name="Z" unicode="Z" horiz-adv-x="670" 
d="M160 -9l359 1q60 0 97.5 40.5t37.5 86.5q0 10 -2 20q-21 92 -122 92l-26 -1q-7 -1 -127 -3l-29 1q2 4 3.5 8t3.5 6q74 106 123 172q56 73 142 200q28 45 28 93q0 43 -26 73t-71 30l-360 1q-36 0 -75.5 -7t-68 -26t-33.5 -54l-1 -27q0 -28 11.5 -53.5t43.5 -48.5
q22 -15 63 -19.5t85 -5.5q29 0 54 -2q-85 -107 -168 -232l-5 -8q-85 -116 -85 -203q1 -56 41 -95t107 -39z" />
    <glyph glyph-name="bracketleft" unicode="[" horiz-adv-x="417" 
d="M145 -101q12 0 43 1t63 4t50 8q36 12 54 36.5t18 51.5q0 35 -28.5 63.5t-85.5 31.5l-10 -1q-6 0 -7.5 18t-1.5 86v115q1 123 1 372q0 8 1.5 10.5t8.5 2.5h12q70 0 102 29t32 64q0 34 -26 62.5t-73 33.5l-22 2q-61 6 -124 6h-14q-93 0 -114 -92q-1 -9 -1.5 -22.5
t-0.5 -67.5v-289h-2l2 -413l-2 -17q0 -39 32.5 -67t92.5 -28z" />
    <glyph glyph-name="backslash" unicode="\" horiz-adv-x="583" 
d="M451 -27q-39 0 -66 31.5t-49 70.5l-75 141q-109 199 -217 419q-24 46 -24 94q0 62 53 91q35 17 62 17t47 -14q31 -22 58 -76q9 -14 153 -290l149 -287q21 -47 21 -82q0 -67 -76 -107q-19 -8 -36 -8z" />
    <glyph glyph-name="bracketright" unicode="]" horiz-adv-x="400" 
d="M260 -95q-11 0 -40.5 1t-60 4t-48.5 8q-34 12 -51 36.5t-17 51.5q0 35 27 63.5t81 31.5l10 -1q6 0 7.5 20t1.5 96l-1 475q0 8 -1.5 10.5t-7.5 2.5h-11q-68 0 -98.5 29t-30.5 64q0 34 25 62.5t69 33.5l22 2q59 6 118 6h13q89 0 108 -92q2 -9 2 -22.5v-67.5v-289h2l-1 -413
q2 -8 2 -17q0 -39 -31 -67t-89 -28z" />
    <glyph glyph-name="asciicircum" unicode="^" horiz-adv-x="352" 
d="M266 680q26 0 46 18.5t20 47.5q-1 33 -18 52l-18 20q-38 44 -64 67.5t-52 23.5q-39 0 -98 -59q-49 -48 -62 -119q2 -8 2.5 -12.5t0.5 -7.5q10 -30 36 -30q6 0 13 2q33 11 73 58q19 25 28 25q3 0 23 -30l19 -31q24 -25 51 -25z" />
    <glyph glyph-name="underscore" unicode="_" horiz-adv-x="437" 
d="M166 -234l53 1v1h64q31 0 47 2t32 10q28 13 41.5 36.5t13.5 48.5q0 37 -27.5 67.5t-81.5 30.5h-60q-65 0 -97 -0.5t-47.5 -3.5t-26.5 -10q-29 -15 -43 -38t-14 -48q0 -26 15.5 -50t45.5 -36q38 -11 85 -11z" />
    <glyph glyph-name="grave" unicode="`" horiz-adv-x="279" 
d="M164 667q36 0 65.5 26.5t29.5 67.5q0 24 -13 52q-64 134 -138 134q-36 0 -62 -27t-26 -65q0 -18 7 -37q23 -61 64 -114q29 -37 73 -37z" />
    <glyph glyph-name="a" unicode="a" 
d="M85 -9q40 0 70 24.5t49 65.5q2 6 6 10t29 4l74 -1h83q24 0 33 -23q19 -38 50 -56.5t63 -18.5q30 0 55 14t39 41q10 21 10 42q0 26 -19 74q-26 68 -88 257q-44 131 -77 220.5t-59 122.5q-37 41 -86 41q-42 0 -76 -32q-6 -6 -11 -13q-10 -14 -37 -81q-13 -30 -211 -529
q-10 -26 -10 -52q0 -32 15 -64q13 -26 31.5 -33.5t35.5 -9.5l8 -1q12 -2 23 -2zM313 297q-17 0 -17 4q5 10 14 26t14 29q3 0 5 -1q8 -24 16 -39q6 -11 6 -15q0 -2 -2 -2z" />
    <glyph glyph-name="b" unicode="b" horiz-adv-x="624" 
d="M321 2q62 0 106 10q92 25 138 94t46 149q0 60 -25.5 116.5t-76.5 95.5q-8 6 -12 10t-4 9q0 6 6 18q20 47 20 93q0 71 -43.5 127t-121.5 78q-39 10 -77 10q-26 0 -52 -2t-55 -3q-49 -2 -85 -25.5t-45 -73.5q-4 -25 -5 -246l-1 -67l1 -282q0 -57 30 -83.5t66 -26.5z
M295 216q-5 0 -5 6l-1 90q0 13 1 20t7 7q19 -1 31 -18t12 -41q0 -19 -9.5 -36.5t-31.5 -26.5zM291 521v91q32 0 32 -46q0 -16 -6 -30.5t-26 -14.5z" />
    <glyph glyph-name="c" unicode="c" horiz-adv-x="609" 
d="M311 -16q70 0 135.5 33.5t108.5 99t43 126.5q0 69 -61 99q-29 12 -50 12q-31 0 -51 -17t-34 -36q-11 -13 -20.5 -22.5t-20.5 -10.5q-16 0 -39.5 12t-41 38.5t-17.5 70.5q1 24 10 51.5t25.5 48t37.5 20.5q13 0 26 -9q28 -16 57 -16q22 0 54 10q37 13 55 42t18 64
q0 39 -23 76q-41 64 -98 95t-118 31q-66 0 -127.5 -35.5t-103.5 -106.5q-74 -127 -74 -280q0 -113 42 -217q39 -89 112 -134t155 -45z" />
    <glyph glyph-name="d" unicode="d" horiz-adv-x="599" 
d="M146 -18q227 0 337 134q95 115 96 290q0 99 -40 191t-128.5 150t-233.5 60q-52 0 -93.5 -43.5t-45.5 -105.5q-3 -75 -3 -257l1 -131q0 -130 1 -146q3 -30 17 -62.5t38 -56t54 -23.5zM277 308q-3 0 -3 1q1 12 1 177q1 3 4 3q7 0 19.5 -9t22.5 -29t10 -55q0 -33 -11 -52.5
t-24.5 -27.5t-18.5 -8z" />
    <glyph glyph-name="e" unicode="e" horiz-adv-x="566" 
d="M215 -22q43 0 101 2q42 1 93 1.5t88.5 31t37.5 85.5t-28.5 92t-72.5 43q-91 0 -143 1q-7 1 -8.5 7t-1.5 16t2 14t11 5t30 2l46 2h36.5t47.5 7q54 16 54 113q0 42 -16 62q-27 32 -88 32q-66 0 -87 1.5t-25 6.5t-4 15v4l-1 16q0 7 9 9q20 0 59 3q51 4 90 4q45 0 67 23
q34 36 34 93q0 53 -23 83q-44 54 -140 54h-240q-96 -6 -106 -79q-2 -16 -2 -101q0 -46 0.5 -94t1 -81t1.5 -33l-1 -204q0 -103 11 -153.5t49 -66.5t118 -16z" />
    <glyph glyph-name="f" unicode="f" horiz-adv-x="546" 
d="M160 -21q51 0 85 34.5t34 108.5q3 69 3 100q0 41 5.5 44.5t121.5 3.5q35 0 56.5 34t21.5 86q0 78 -53 101q-20 8 -48 8h-12q-72 0 -79 7q-4 3 -4 11q0 35 6 38.5t15 3.5q62 0 111 3q38 3 70 23q49 32 49 105q0 41 -15 66t-36.5 37t-42.5 12l-117 -1q-85 -1 -191 -1
q-39 0 -64 -24.5t-30 -60.5q-1 -7 -2.5 -11.5t-1.5 -14.5v-21q-3 -70 -3 -188q-1 -21 -1 -45h-2q0 -227 -1 -274q0 -58 1 -63q0 -63 32.5 -92.5t91.5 -29.5z" />
    <glyph glyph-name="g" unicode="g" horiz-adv-x="611" 
d="M305 -7q72 0 139.5 35.5t111 105t43.5 172.5q0 31 -11 58q-19 40 -51 49.5t-63 9.5h-22l-37 -3q-40 -4 -62 -9q-26 -8 -43.5 -32t-17.5 -53q0 -33 30 -61q5 -4 10 -13t5 -18q0 -8 -4 -11.5t-13 -5.5q-18 0 -40 32q-21 36 -21 96q0 42 9.5 86.5t32.5 75.5t63 31
q30 0 70 -27q15 -9 33 -9q30 0 55 22q33 29 33 81q0 82 -74.5 142t-170.5 60q-64 0 -127 -34.5t-110 -113.5q-73 -127 -73 -271q0 -101 34 -187t91 -140q37 -34 83.5 -51t96.5 -17z" />
    <glyph glyph-name="h" unicode="h" horiz-adv-x="657" 
d="M152 -16q48 0 91.5 26t48.5 83q1 49 1 82t1.5 49.5t9.5 16.5l36 1q9 0 11.5 -1.5t2.5 -5.5v-34q0 -87 5 -127q8 -44 43 -66.5t78 -22.5q30 0 59 13q64 28 64 101q0 167 2 273q1 90 1 269q0 64 -20 99q-36 63 -111 63q-30 0 -53.5 -8.5t-32.5 -18.5q-22 -28 -27.5 -69.5
t-5.5 -79.5l2 -133q0 -60 -10 -60l-31 -1q-14 0 -17 3.5t-3 14.5l2 170l-1 62q0 44 -23 71.5t-57.5 40t-68.5 12.5q-48 0 -78 -41.5t-32 -111.5l-4 -367q1 -61 1 -148q0 -50 5 -78t25 -49q33 -28 86 -28z" />
    <glyph glyph-name="i" unicode="i" horiz-adv-x="346" 
d="M153 -9q35 0 66 13.5t50.5 49.5t19.5 102q4 104 4 228q0 223 -5 316q-4 48 -39.5 79.5t-87.5 31.5t-85 -33t-38 -86q-2 -15 -3 -29.5t-1.5 -36.5t-0.5 -64l3 -384l-1 -27q0 -72 25 -116t93 -44z" />
    <glyph glyph-name="j" unicode="j" horiz-adv-x="502" 
d="M224 -11q65 0 121 33.5t79 91.5q16 40 20.5 87.5t7.5 152.5l3 104h-2q0 42 4 170l1 40q0 75 -33 109t-73 34q-41 0 -76 -32.5t-35 -90.5q-11 -134 -13 -375q0 -7 1.5 -18.5t1.5 -24.5q0 -22 -6 -31t-22 -12q-23 0 -23 37l2 23q0 44 -32 72t-70 28q-27 0 -49.5 -16.5
t-31 -43t-8.5 -57.5q0 -40 10.5 -79.5t23.5 -68.5q33 -70 87 -101.5t112 -31.5z" />
    <glyph glyph-name="k" unicode="k" horiz-adv-x="664" 
d="M535 -6q41 0 72.5 27t31.5 72q0 54 -49 112q-61 58 -100 97l-37 36q-31 29 -31 37q1 6 5 11l100 105q89 85 117 147q10 27 10 53q0 51 -32.5 87t-73.5 36q-30 0 -57.5 -22.5t-82.5 -76.5l-127 -128q0 19 -1 37v18q0 28 -2 63q0 40 -36.5 73t-83.5 35q-36 0 -66.5 -27
t-41.5 -65q-15 -65 -15 -287q0 -95 1 -177l1 -108q10 -154 115 -154l16 -1q39 0 69.5 28.5t30.5 79.5q0 12 -1 24t-1 25l1 19l2 1l188 -149q39 -28 78 -28z" />
    <glyph glyph-name="l" unicode="l" horiz-adv-x="542" 
d="M335 -16q106 0 150.5 17.5t55.5 81.5l1 24q0 62 -37 86t-98.5 26.5t-89.5 3.5q-16 0 -24.5 0.5t-11 1.5t-2.5 4q2 20 3 110t1 149.5t2 95.5v32q1 14 1 23t1 15v14h1q-1 28 -10.5 59.5t-35.5 55t-81 23.5q-49 0 -76.5 -22t-38.5 -53.5t-11 -61.5v-573q0 -51 36 -81t75 -30
z" />
    <glyph glyph-name="m" unicode="m" horiz-adv-x="860" 
d="M161 -17q62 0 98.5 37.5t39.5 106.5l3 105q0 6 6 6l5 -1q9 -7 22 -21q18 -19 41 -38.5t49 -19.5q21 2 43.5 18.5t42.5 35.5t36 30l6 2q11 0 13 -10l-1 -16q-2 -13 -2 -29q4 -76 11.5 -110.5t29.5 -57.5q38 -34 86 -34q34 0 62.5 18.5t38.5 58.5l1 4q2 6 4 19
q12 69 14 504q0 62 -4.5 97t-19.5 66q-28 48 -82 48q-27 0 -55.5 -14.5t-52.5 -47.5q-89 -125 -123 -174q-36 -53 -42.5 -57.5t-8.5 -4.5t-5.5 3t-6.5 8l-168 240q-20 27 -45 39.5t-50 12.5q-39 0 -67 -29q-18 -18 -29 -54t-13 -123q0 -352 -1 -420v-50q0 -24 1 -30
q11 -57 50.5 -87.5t72.5 -30.5z" />
    <glyph glyph-name="n" unicode="n" horiz-adv-x="800" 
d="M621 -22q55 0 81.5 30.5t35.5 103t9 197.5q0 169 -1 228l1 149q0 41 -37.5 78.5t-91.5 37.5q-97 0 -126 -99q-16 -56 -19 -204q0 -27 -15 -30q-7 0 -17 13l-27 37q-160 227 -202 261q-31 22 -70 22q-25 0 -48 -12.5t-38 -41.5t-16 -79q-1 0 -1.5 -73t-1 -171.5
t-0.5 -176.5q0 -110 1 -110q0 -29 9 -67q22 -93 120 -93q62 0 92.5 38.5t30.5 87.5q0 43 5 129v5q0 5 3.5 12t8.5 7q4 0 8 -4q38 -40 70 -88l30 -41q31 -44 85.5 -92.5t120.5 -53.5z" />
    <glyph glyph-name="o" unicode="o" horiz-adv-x="618" 
d="M299 -21q-82 0 -149.5 55.5t-108 149t-40.5 207.5q0 113 40.5 207t108 149.5t149.5 55.5t149.5 -55.5t107.5 -149.5t40 -207q0 -114 -40 -207.5t-107.5 -149t-149.5 -55.5zM301 305q15 0 25 23.5t10 57.5q0 33 -10 57t-25 24q-14 0 -24.5 -24t-10.5 -57q0 -34 10.5 -57.5
t24.5 -23.5z" />
    <glyph glyph-name="p" unicode="p" horiz-adv-x="622" 
d="M158 -14q50 0 89 39.5t47 94.5q8 69 8 88q0 14 1.5 15.5t20.5 1.5q102 12 165.5 57t92.5 109.5t29 130.5q0 100 -59 175q-43 51 -81 74.5t-91 29.5t-147 6h-87q-33 0 -68.5 -31t-40.5 -80q-3 -43 -3 -130v-107q1 -106 1 -329v-8q0 -95 86 -129q19 -7 37 -7zM313 442
q-2 0 -7 5l-2 1q-1 2 -1 10l1 76q1 17 10 17q12 0 25 -18.5t13 -32.5q0 -15 -7.5 -28t-17 -21.5t-14.5 -8.5z" />
    <glyph glyph-name="q" unicode="q" horiz-adv-x="658" 
d="M557 -21q-31 0 -57.5 14.5t-49.5 33.5q-3 2 -6 2l-5 -1q-65 -49 -140 -49q-82 0 -150 55.5t-108 149t-40 207.5t40 207.5t108 149t150 55.5t149.5 -55.5t107.5 -149t40 -207.5q0 -52 -8 -85.5t-24 -72.5v-3q0 -5 3 -10l68 -81q24 -28 24 -60q0 -24 -16 -57
q-11 -20 -34.5 -31.5t-51.5 -11.5zM301 305q14 0 24.5 23.5t10.5 57.5q0 33 -10.5 57t-24.5 24q-15 0 -25 -24t-10 -57q0 -34 10 -57.5t25 -23.5z" />
    <glyph glyph-name="r" unicode="r" horiz-adv-x="647" 
d="M162 -8q34 0 64.5 18.5t48.5 56.5q16 46 16 85v12q0 15 1 25l5 2q11 -19 59 -79q51 -65 77 -88q39 -29 77 -29q44 0 77.5 31.5t33.5 73.5q0 25 -15 52q-51 72 -77 103q-29 35 -29 46q0 7 18.5 22t51.5 53q54 71 54 157q0 89 -59.5 168.5t-181.5 104.5q-59 9 -118 9
q-36 0 -72 -2q-42 -2 -76.5 -19t-56 -48.5t-21.5 -79.5l-2 -330q0 -31 0.5 -44.5t0.5 -22t0.5 -22t0.5 -122.5q0 -7 3 -18.5t5 -20.5q12 -48 45 -71t70 -23zM316 437q-10 2 -10 49q0 72 11 72h2q14 0 25 -21.5t11 -38.5q0 -23 -10.5 -41t-28.5 -20z" />
    <glyph glyph-name="s" unicode="s" horiz-adv-x="602" 
d="M265 -15q112 3 183.5 41.5t105.5 99.5t34 126q0 75 -42 142q-51 80 -156 107q-37 9 -69 27t-35 60q1 10 8 18t14 8q9 -2 14 -16t25 -42q27 -36 75 -36q27 0 51.5 13t37.5 37.5t13 51.5q0 41 -24.5 80.5t-65.5 66.5q-63 38 -137 38q-85 0 -162.5 -51t-107.5 -156
q-7 -28 -7 -52q0 -125 172 -211q19 -11 26 -16q62 -42 62 -70q0 -10 -7.5 -15.5t-17.5 -5.5q-15 0 -27 13q-64 68 -118 68q-41 0 -69.5 -30.5t-28.5 -79.5q0 -78 78 -158q46 -42 136 -54q33 -4 39 -4z" />
    <glyph glyph-name="t" unicode="t" horiz-adv-x="657" 
d="M319 -9q55 0 90.5 35.5t38.5 99.5l1 161l-1 147q0 74 3 95q1 13 8 17.5t11 4.5q29 0 63.5 3t60.5 17q60 35 60 123q0 51 -27 77.5t-60 35.5t-53 9h-348q-53 0 -102 -22q-74 -33 -74 -114q0 -43 28 -75t57 -43q15 -6 33 -8.5t56 -2.5q10 0 20.5 -3t11.5 -15q7 -136 7 -373
v-44q0 -1 4 -20.5t16 -43.5t35 -42.5t61 -18.5z" />
    <glyph glyph-name="u" unicode="u" horiz-adv-x="666" 
d="M324 -19q92 0 157.5 49.5t101 122.5t35.5 145q7 105 7 186q0 61 -2 108l-1 66q0 48 -22.5 80t-53 47.5t-55.5 15.5q-47 0 -83.5 -42t-39.5 -97q-3 -107 -3 -202q0 -100 -4 -134.5t-27 -34.5q-22 0 -27.5 31.5t-5.5 77.5v67l-1 50l1 66q0 63 -12 109q-5 12 -15 32
q-39 75 -104 75q-89 0 -121 -73q-26 -59 -26 -228q0 -92 7 -191q3 -50 20.5 -106.5t52 -106t89 -81.5t132.5 -32z" />
    <glyph glyph-name="v" unicode="v" horiz-adv-x="617" 
d="M295 1q40 0 69 23t53 94l93 271q89 263 101 303q5 16 5 31q0 31 -19.5 56t-56.5 36q-18 5 -33 5q-44 0 -74 -33t-53.5 -87t-46.5 -120l-26 -71q-3 -6 -8 -6t-8 6q-21 50 -38 98q-21 59 -43 106.5t-51 76.5t-73 29q-36 0 -55 -17t-25.5 -42t-6.5 -50q0 -41 8 -67l67 -229
q62 -216 87 -291q43 -122 134 -122z" />
    <glyph glyph-name="w" unicode="w" horiz-adv-x="877" 
d="M255 -15q35 0 67 25.5t48 60.5l53 116q4 6 9 6q6 0 9.5 -7.5t6.5 -16.5q27 -79 42 -108q38 -73 98 -73q49 0 83 51q17 27 107 328q83 280 92 318l2 20q0 45 -35.5 72t-73.5 27q-44 0 -74 -34.5t-52 -88.5t-41.5 -113t-40.5 -110q-1 -2 -3 -2q-3 0 -5 3q-6 15 -20 43
q-39 73 -83 73q-26 0 -50 -22.5t-41 -49t-25 -42.5l-4 -2q-3 0 -4.5 4t-36.5 130q-47 164 -114 197q-28 15 -53 15q-120 0 -120 -98q0 -12 6.5 -38t35.5 -131q35 -125 125 -454q14 -54 39 -76.5t53 -22.5z" />
    <glyph glyph-name="x" unicode="x" horiz-adv-x="708" 
d="M116 0q55 0 87 40l116 152q7 8 17 8t17 -8q70 -89 115 -131l23 -25q32 -35 90 -35q49 0 81.5 26t32.5 62q0 51 -61 129q-51 74 -77 105q-17 21 -28.5 37.5t-20.5 38.5q-5 10 -5 20q0 11 8.5 21.5t22.5 27.5q119 152 138 184q20 29 20 57q0 45 -39 79t-84 34
q-50 0 -85 -48q-12 -16 -29 -43q-24 -39 -74 -111q-9 -10 -20 -10t-20 10q-71 97 -123 148.5t-109 51.5q-46 0 -73 -31t-27 -67q0 -40 30.5 -89t79.5 -115q30 -39 63 -86q6 -9 6 -19q0 -8 -4.5 -16.5t-152.5 -230.5q-4 -5 -11 -26.5t-7 -47.5q0 -52 39 -75q6 -6 23.5 -11.5
t40.5 -5.5z" />
    <glyph glyph-name="y" unicode="y" horiz-adv-x="607" 
d="M284 -5q30 0 58.5 20t40.5 49q23 60 23 143q0 31 -1.5 58.5t-1.5 49.5q0 40 11 61q132 196 168 256q15 25 20 38l2 5q7 18 7 37q0 41 -30.5 72.5t-71.5 31.5q-34 0 -70 -29q-12 -11 -38 -48q-32 -45 -97 -126q-6 -6 -14 -6q-9 0 -15 9q-12 22 -33 51l-52 75
q-21 28 -54 50.5t-67 22.5q-35 0 -60 -29.5t-25 -59.5q0 -36 28 -90t83 -146l61 -105q8 -20 8 -67l-1 -88q0 -50 5 -102q9 -65 42.5 -99t73.5 -34z" />
    <glyph glyph-name="z" unicode="z" horiz-adv-x="674" 
d="M165 -9l359 1q60 0 97.5 40.5t37.5 86.5q0 10 -2 20q-21 92 -122 92l-26 -1q-7 -1 -127 -3l-29 1q2 4 3.5 8t3.5 6q74 106 123 172q56 73 142 200q28 45 28 93q0 43 -26 73t-71 30l-360 1q-36 0 -75.5 -7t-68 -26t-33.5 -54l-1 -27q0 -28 11.5 -53.5t43.5 -48.5
q22 -15 63 -19.5t85 -5.5q29 0 54 -2q-85 -107 -168 -232l-5 -8q-85 -116 -85 -203q1 -56 41 -95t107 -39z" />
    <glyph glyph-name="braceleft" unicode="{" horiz-adv-x="397" 
d="M227 -124q35 0 61 20q30 23 33 75q0 47 -41 77q-11 7 -13 21q-1 8 -1 53q0 67 -1.5 127t-17.5 95q-7 12 -7 24q3 23 15 58q5 16 7 33l5 102q1 45 7.5 69.5t34.5 40.5q68 36 68 80q0 27 -22 49q-28 29 -83 29q-71 0 -126.5 -50t-66.5 -141q-6 -60 -6 -99t-4.5 -66
t-23.5 -49q-25 -30 -25 -68q0 -40 34 -76q12 -10 15.5 -22t3.5 -42l-1 -73h2v-89q5 -88 53.5 -133t99.5 -45z" />
    <glyph glyph-name="bar" unicode="|" horiz-adv-x="271" 
d="M157 -67q57 8 73 53t17 101q0 63 2 153q2 118 2 248q0 117 -4 230q-1 34 -11 68.5t-34 58.5t-67 24q-94 0 -108 -79q-6 -32 -6 -63q-1 -12 -1 -254q0 -384 1 -398q2 -29 11 -62q24 -80 125 -80z" />
    <glyph glyph-name="braceright" unicode="}" horiz-adv-x="396" 
d="M169 -90q-35 0 -61 20q-29 23 -33 74q0 48 42 77q11 8 12 20q1 8 1 54q0 69 2 128t18 94q6 12 6 24l-1 10q-9 36 -12.5 46.5t-5.5 18t-4 46.5l-3 69q-1 47 -7.5 72.5t-34.5 41.5q-12 6 -26 15q-42 28 -42 65q0 26 22 49q28 29 83 29q71 0 126.5 -50t66.5 -141
q5 -59 5 -98.5t4.5 -66.5t23.5 -49q25 -30 25 -68q0 -40 -34 -76q-12 -10 -15 -22t-3 -42v-73h-2v-89q-5 -88 -53.5 -133t-99.5 -45z" />
    <glyph glyph-name="asciitilde" unicode="~" horiz-adv-x="475" 
d="M322 234q50 0 87.5 29.5t44.5 68.5l1 14q0 32 -20.5 51t-49.5 19q-26 0 -54 -18q-6 -4 -9 -4t-13 8.5t-49 32.5q-40 22 -82 22q-69 0 -123 -54q-35 -43 -35 -81q0 -28 16 -47t43 -19q24 0 56 21q13 9 20 15t11 9t8 3q12 0 49 -31q48 -39 99 -39z" />
    <glyph glyph-name="exclamdown" unicode="&#xa1;" horiz-adv-x="306" 
d="M155 -234q101 5 116 128q6 52 9 135q5 110 6 167q0 56 -7.5 89.5t-30.5 59.5q-36 41 -85 41q-41 0 -76 -27t-48 -69q-10 -31 -13 -64t-4 -99l-2 -63h1l-1 -59q0 -56 7.5 -111t34 -91.5t85.5 -36.5h8zM163 478q24 0 47 11q37 20 56 53t19 69q0 48 -33 89q-43 42 -97 42
q-31 0 -60 -14.5t-48 -42.5q-23 -36 -23 -77q0 -36 19.5 -68.5t59.5 -48.5q31 -13 60 -13z" />
    <glyph glyph-name="cent" unicode="&#xa2;" horiz-adv-x="420" 
d="M209 -6q-83 0 -93 67l-1 89q-44 28 -68 83q-27 67 -27 134q0 91 48 181q22 37 53 59q0 83 11 114q15 50 83 50q89 0 89 -81v-30q0 -29 -1 -50q28 -19 49 -52q14 -23 14 -47q0 -10 -4.5 -32t-41.5 -37q-19 -6 -33 -6q-22 0 -37 10q-10 6 -17 6q-4 0 -8 -2q-17 -9 -28 -30
t-11 -41q0 -28 10.5 -45.5t26 -26t26.5 -8.5q9 1 26 21q24 34 52 34q14 0 34 -8q39 -21 39 -61q-1 -41 -28 -82t-67 -62l1 -16q0 -38 -12 -78q-18 -53 -85 -53z" />
    <glyph glyph-name="sterling" unicode="&#xa3;" horiz-adv-x="633" 
d="M368 -9l-58 1q-51 1 -114 1q-39 0 -75 30t-36 81l1 191q-13 3 -21 7q-45 27 -45 73q0 4 2.5 32t63.5 53q0 86 22 162q52 187 278 187q143 0 209 -82q18 -31 18 -60q0 -67 -63 -98q-27 -8 -46 -8q-22 0 -46.5 14t-40.5 14t-40 -10l-4 -3q-39 -27 -41 -74v-36q64 -7 81 -57
q6 -16 6 -32q0 -25 -17 -56t-70 -36h-2q0 -31 -1 -49v-2q0 -5 38 -5l88 -4q134 -2 134 -112q0 -92 -73 -110q-47 -12 -148 -12z" />
    <glyph glyph-name="yen" unicode="&#xa5;" horiz-adv-x="662" 
d="M317 -7q-94 0 -115 132q-1 4 -1 9q-25 4 -37 10q-46 28 -46 73q0 7 5 38t75 51v9q-22 4 -34 10q-46 26 -46 74q0 33 27 61q-9 13 -16 26q-109 180 -109 231q0 41 38 72q24 19 50 19q19 0 53 -17q56 -28 148 -181q5 -9 15 -9q18 0 110 131q26 37 37 47q36 29 70 29
q55 0 88 -53q13 -23 13 -48t-8 -42.5t-24 -45.5q-24 -40 -109 -167q16 -25 16 -51q0 -18 -12 -50t-69 -43v-1q81 -13 81 -89q0 -80 -84 -91v-1l-1 -4q-13 -79 -55 -110q-30 -19 -60 -19z" />
    <glyph glyph-name="brokenbar" unicode="&#xa6;" horiz-adv-x="251" 
d="M129 464q24 0 46 11.5t35 35.5q21 44 21 203q0 46 -1 69v7q-4 45 -35 68t-68 23q-32 0 -59.5 -18t-36.5 -54q-11 -53 -11 -107q0 -31 6 -129q5 -55 36 -82t67 -27zM129 -52q24 0 46 11.5t35 35.5q21 44 21 203q0 46 -1 69v7q-4 45 -35 68t-68 23q-32 0 -59.5 -18
t-36.5 -54q-11 -53 -11 -107q0 -30 6 -129q5 -55 36 -82t67 -27z" />
    <glyph glyph-name="section" unicode="&#xa7;" horiz-adv-x="529" 
d="M215 -6l-15 1q-15 1 -37 6q-56 10 -83 34q-58 57 -60 105q0 48 30 71q20 15 44 15q42 0 89 -47q10 -10 23 -10q21 0 21 13q0 19 -49 51q-5 4 -21 11q-84 39 -117 96q-14 23 -14 53q0 18 5 38q22 71 78 108q-36 33 -36 85q0 18 4 37q37 107 134 136q38 11 74 11
q56 0 105 -27q43 -26 60 -66q9 -19 9 -37q0 -20 -10 -38q-21 -31 -61 -35q-42 0 -65 25q-16 21 -19.5 30.5t-10.5 10.5q-5 0 -10.5 -5.5t-5.5 -12.5q2 -31 27 -43.5t53 -18.5q14 -3 25 -7q106 -43 124 -140q3 -16 3 -31q0 -78 -73 -138q26 -45 26 -90t-38 -113.5t-209 -77.5
zM260 399q6 1 11 9q-10 14 -12.5 20t-4.5 9t-6 4q-15 0 -17 -19q0 -9 3 -17q9 -6 18 -6h8z" />
    <glyph glyph-name="dieresis" unicode="&#xa8;" horiz-adv-x="332" 
d="M244 734q25 0 46.5 17t21.5 51q0 35 -21 51.5t-47 16.5t-47.5 -17t-21.5 -51t21.5 -51t47.5 -17zM84 735q23 0 43 16t20 47q0 32 -20 47.5t-44 15.5q-23 0 -43 -15.5t-20 -47.5q0 -31 20 -47t44 -16z" />
    <glyph glyph-name="copyright" unicode="&#xa9;" horiz-adv-x="732" 
d="M371 217q-5 0 -40.5 2.5t-68.5 69.5q-17 43 -17 87q0 57 30 115q36 57 96 57q50 0 86 -51q8 -14 8 -29q0 -7 -2.5 -21.5t-26.5 -23.5q-13 -4 -22 -4q-13 0 -23 7q-5 3 -10 3q-13 0 -23 -19q-7 -15 -7 -29q0 -16 6.5 -27.5t16.5 -16.5t16 -5q7 0 17 13q16 22 34 22
q9 0 21 -5q25 -13 25 -39q0 -27 -17 -52q-40 -54 -99 -54zM366 37q-143 0 -244.5 101t-101.5 244q0 144 101.5 245t244.5 101t244.5 -101t101.5 -245q0 -143 -101.5 -244t-244.5 -101zM366 172q87 0 148.5 62t61.5 148q0 87 -61.5 149t-148.5 62t-148.5 -62t-61.5 -149
q0 -86 61.5 -148t148.5 -62z" />
    <glyph glyph-name="registered" unicode="&#xae;" horiz-adv-x="732" 
d="M315 233q-2 0 -17 0.5t-26 31.5q0 1 -1 3.5t-2 6t-1 6.5v197q0 55 76 55q25 0 50 -4q88 -22 88 -100q0 -47 -39 -75q-7 -5 -7 -9q0 -3 11 -17q34 -41 34 -57q0 -28 -32 -36l-10 -1q-29 0 -77 71l-1 -1q-1 -4 -1 -9v-4q0 -14 -6 -31q-14 -27 -39 -27zM369 395q15 2 15 21
q0 15 -11 22l-2 1q-5 0 -5 -6v-25q0 -13 3 -13zM366 37q-143 0 -244.5 101t-101.5 244q0 144 101.5 245t244.5 101t244.5 -101t101.5 -245q0 -143 -101.5 -244t-244.5 -101zM366 172q86 0 148 62t62 148q0 87 -62 149t-148 62q-87 0 -148.5 -62t-61.5 -149q0 -86 61.5 -148
t148.5 -62z" />
    <glyph glyph-name="acute" unicode="&#xb4;" horiz-adv-x="298" 
d="M113 698q28 0 47 11.5t42 42.5q69 93 74 125l2 18q0 38 -25.5 62.5t-59.5 24.5q-19 0 -39 -9q-58 -28 -117 -124q-17 -29 -17 -57q0 -38 26 -66t67 -28z" />
    <glyph glyph-name="cedilla" unicode="&#xb8;" horiz-adv-x="320" 
d="M150 -416q71 6 110.5 54t39.5 104q0 49 -34 89.5t-108 47.5q-6 0 -8 1t-2 5l3 49q0 23 -8 40.5t-34 26.5q-10 3 -20 3q-33 0 -51 -32t-18 -73q0 -34 14.5 -66t44.5 -47q18 -8 32 -12q21 -6 21 -12q0 -3 -5.5 -8t-17 -10.5t-20.5 -11.5q-35 -30 -35 -66q0 -31 23 -56.5
t65 -25.5h8z" />
    <glyph glyph-name="questiondown" unicode="&#xbf;" horiz-adv-x="515" 
d="M275 -253q54 2 104.5 29t83 74.5t32.5 108.5q-2 65 -43 97q-37 28 -78 28q-14 0 -27 -3q-23 -6 -47 -16l-1 13q0 14 7.5 24.5t22.5 24.5q42 43 64 89t22 89q-2 52 -34 76q-27 21 -63 21q-45 0 -86 -32q-90 -72 -144 -138t-65 -144q-3 -24 -3 -48q0 -72 28 -139.5
t83.5 -110.5t138.5 -43h5zM311 445q42 0 78 28q41 32 45 98q0 47 -34.5 82.5t-82.5 35.5q-14 0 -29 -4q-45 -12 -68 -46t-23 -74q0 -27 11.5 -52.5t33.5 -44.5q31 -23 69 -23z" />
    <glyph glyph-name="Agrave" unicode="&#xc0;" horiz-adv-x="636" 
d="M81 -9q40 0 70 24.5t49 65.5q2 6 6 10t29 4l74 -1h83q24 0 33 -23q19 -38 50 -56.5t63 -18.5q30 0 55 14t39 41q10 21 10 42q0 26 -19 74q-26 68 -88 257q-44 131 -77 220.5t-59 122.5q-37 41 -86 41q-42 0 -76 -32q-6 -6 -11 -13q-10 -14 -37 -81q-13 -30 -211 -529
q-10 -26 -10 -52q0 -32 15 -64q13 -26 31.5 -33.5t35.5 -9.5l8 -1q12 -2 23 -2zM309 297q-17 0 -17 4q5 10 14 26t14 29q3 0 5 -1q8 -24 16 -39q6 -11 6 -15q0 -2 -2 -2zM378 839q36 0 65.5 26.5t29.5 67.5q0 24 -13 52q-64 134 -138 134q-36 0 -62 -27t-26 -65q0 -18 7 -37
q23 -61 64 -114q29 -37 73 -37z" />
    <glyph glyph-name="Aacute" unicode="&#xc1;" horiz-adv-x="636" 
d="M81 -9q40 0 70 24.5t49 65.5q2 6 6 10t29 4l74 -1h83q24 0 33 -23q19 -38 50 -56.5t63 -18.5q30 0 55 14t39 41q10 21 10 42q0 26 -19 74q-26 68 -88 257q-44 131 -77 220.5t-59 122.5q-37 41 -86 41q-42 0 -76 -32q-6 -6 -11 -13q-10 -14 -37 -81q-13 -30 -211 -529
q-10 -26 -10 -52q0 -32 15 -64q13 -26 31.5 -33.5t35.5 -9.5l8 -1q12 -2 23 -2zM309 297q-17 0 -17 4q5 10 14 26t14 29q3 0 5 -1q8 -24 16 -39q6 -11 6 -15q0 -2 -2 -2zM358 834q28 0 47 11.5t42 42.5q69 93 74 125l2 18q0 38 -25.5 62.5t-59.5 24.5q-19 0 -39 -9
q-58 -28 -117 -124q-17 -29 -17 -57q0 -38 26 -66t67 -28z" />
    <glyph glyph-name="Acircumflex" unicode="&#xc2;" horiz-adv-x="636" 
d="M81 -9q40 0 70 24.5t49 65.5q2 6 6 10t29 4l74 -1h83q24 0 33 -23q19 -38 50 -56.5t63 -18.5q30 0 55 14t39 41q10 21 10 42q0 26 -19 74q-26 68 -88 257q-44 131 -77 220.5t-59 122.5q-37 41 -86 41q-42 0 -76 -32q-6 -6 -11 -13q-10 -14 -37 -81q-13 -30 -211 -529
q-10 -26 -10 -52q0 -32 15 -64q13 -26 31.5 -33.5t35.5 -9.5l8 -1q12 -2 23 -2zM309 297q-17 0 -17 4q5 10 14 26t14 29q3 0 5 -1q8 -24 16 -39q6 -11 6 -15q0 -2 -2 -2zM459 822q26 0 46 18.5t20 47.5q-1 33 -18 52l-18 20q-38 44 -64 67.5t-52 23.5q-39 0 -98 -59
q-49 -48 -62 -119q2 -8 2 -12.5t1 -7.5q10 -30 36 -30q6 0 13 2q33 11 73 58q18 25 28 25q3 0 23 -30l19 -31q24 -25 51 -25z" />
    <glyph glyph-name="Atilde" unicode="&#xc3;" horiz-adv-x="636" 
d="M81 -9q40 0 70 24.5t49 65.5q2 6 6 10t29 4l74 -1h83q24 0 33 -23q19 -38 50 -56.5t63 -18.5q30 0 55 14t39 41q10 21 10 42q0 26 -19 74q-26 68 -88 257q-44 131 -77 220.5t-59 122.5q-37 41 -86 41q-42 0 -76 -32q-6 -6 -11 -13q-10 -14 -37 -81q-13 -30 -211 -529
q-10 -26 -10 -52q0 -32 15 -64q13 -26 31.5 -33.5t35.5 -9.5l8 -1q12 -2 23 -2zM309 297q-17 0 -17 4q5 10 14 26t14 29q3 0 5 -1q8 -24 16 -39q6 -11 6 -15q0 -2 -2 -2zM457 838q50 0 87.5 29.5t44.5 68.5l1 14q0 32 -20.5 51t-49.5 19q-26 0 -54 -18q-6 -4 -9 -4
q-4 0 -13.5 8.5t-48.5 32.5q-40 22 -82 22q-69 0 -123 -54q-35 -43 -35 -81q0 -28 16 -47t43 -19q24 0 56 21q13 9 19.5 15t11 9t8.5 3q12 0 49 -31q48 -39 99 -39z" />
    <glyph glyph-name="Adieresis" unicode="&#xc4;" horiz-adv-x="636" 
d="M81 -9q40 0 70 24.5t49 65.5q2 6 6 10t29 4l74 -1h83q24 0 33 -23q19 -38 50 -56.5t63 -18.5q30 0 55 14t39 41q10 21 10 42q0 26 -19 74q-26 68 -88 257q-44 131 -77 220.5t-59 122.5q-37 41 -86 41q-42 0 -76 -32q-6 -6 -11 -13q-10 -14 -37 -81q-13 -30 -211 -529
q-10 -26 -10 -52q0 -32 15 -64q13 -26 31.5 -33.5t35.5 -9.5l8 -1q12 -2 23 -2zM309 297q-17 0 -17 4q5 10 14 26t14 29q3 0 5 -1q8 -24 16 -39q6 -11 6 -15q0 -2 -2 -2zM440 835q25 0 46.5 17t21.5 51q0 35 -21 51.5t-47 16.5t-47.5 -17t-21.5 -51t21.5 -51t47.5 -17z
M280 836q23 0 43 16t20 47q0 32 -20 47.5t-44 15.5q-23 0 -43 -15.5t-20 -47.5q0 -31 20 -47t44 -16z" />
    <glyph glyph-name="Aring" unicode="&#xc5;" horiz-adv-x="636" 
d="M81 -9q40 0 70 24.5t49 65.5q2 6 6 10t29 4l74 -1h83q24 0 33 -23q19 -38 50 -56.5t63 -18.5q30 0 55 14t39 41q10 21 10 42q0 26 -19 74q-26 68 -88 257q-44 131 -77 220.5t-59 122.5q-37 41 -86 41q-42 0 -76 -32q-6 -6 -11 -13q-10 -14 -37 -81q-13 -30 -211 -529
q-10 -26 -10 -52q0 -32 15 -64q13 -26 31.5 -33.5t35.5 -9.5l8 -1q12 -2 23 -2zM309 297q-17 0 -17 4q5 10 14 26t14 29q3 0 5 -1q8 -24 16 -39q6 -11 6 -15q0 -2 -2 -2zM371 830q43 0 77.5 32.5t34.5 82.5q-1 47 -32.5 79.5t-80.5 32.5q-46 0 -80.5 -33t-34.5 -84
q2 -45 33 -77.5t77 -32.5h6zM372 920q-10 0 -18 7.5t-8 18.5q0 10 6 16t16 7q11 0 18 -7t7 -18q0 -10 -6 -16.5t-15 -7.5z" />
    <glyph glyph-name="AE" unicode="&#xc6;" horiz-adv-x="920" 
d="M49 -9q40 0 70 24.5t49 65.5q2 6 6 10t29 4l74 -1h83q24 0 33 -23q19 -38 50 -56.5t63 -18.5q30 0 55 14t39 41q10 21 10 42q0 26 -19 74q-26 68 -88 257q-44 131 -77 220.5t-59 122.5q-37 41 -86 41q-42 0 -76 -32q-6 -6 -11 -13q-10 -14 -37 -81q-13 -30 -211 -529
q-10 -26 -10 -52q0 -32 15 -64q13 -26 31.5 -33.5t35.5 -9.5l8 -1q12 -2 23 -2zM277 297q-17 0 -17 4q5 10 14 26t14 29q3 0 5 -1q8 -24 16 -39q6 -11 6 -15q0 -2 -2 -2zM595 -22q43 0 101 2q42 1 93 1.5t88.5 31t37.5 85.5t-28.5 92t-72.5 43q-91 0 -143 1q-7 1 -8.5 7
t-1.5 16t2 14t11 5t30 2l46 2h36.5t47.5 7q54 16 54 113q0 42 -16 62q-27 32 -88 32q-66 0 -87 1.5t-25 6.5t-4 15v4l-1 16q0 7 9 9q20 0 59 3q51 4 90 4q45 0 67 23q34 36 34 93q0 53 -23 83q-44 54 -140 54h-240q-96 -6 -106 -79q-2 -16 -2 -101q0 -46 0.5 -94t1 -81
t1.5 -33l-1 -204q0 -103 11 -153.5t49 -66.5t118 -16z" />
    <glyph glyph-name="Ccedilla" unicode="&#xc7;" horiz-adv-x="604" 
d="M305 -16q70 0 135.5 33.5t108.5 99t43 126.5q0 69 -61 99q-29 12 -50 12q-31 0 -51 -17t-34 -36q-11 -13 -20.5 -22.5t-20.5 -10.5q-16 0 -39.5 12t-41 38.5t-17.5 70.5q1 24 10 51.5t25.5 48t37.5 20.5q13 0 26 -9q28 -16 57 -16q22 0 54 10q37 13 55 42t18 64
q0 39 -23 76q-41 64 -98 95t-118 31q-66 0 -127.5 -35.5t-103.5 -106.5q-74 -127 -74 -280q0 -113 42 -217q39 -89 112 -134t155 -45zM384 -389q71 6 110.5 54t39.5 104q0 49 -34 89.5t-108 47.5q-6 0 -8 1t-2 5l3 49q0 23 -8 40.5t-34 26.5q-10 3 -20 3q-33 0 -51 -32
t-18 -73q0 -34 14.5 -66t44.5 -47q18 -8 32 -12q21 -6 21 -12q0 -3 -5.5 -8t-17 -10.5t-20.5 -11.5q-35 -30 -35 -66q0 -31 23 -56.5t65 -25.5h8z" />
    <glyph glyph-name="Egrave" unicode="&#xc8;" horiz-adv-x="561" 
d="M209 -22q43 0 101 2q42 1 93 1.5t88.5 31t37.5 85.5t-28.5 92t-72.5 43q-91 0 -143 1q-7 1 -8.5 7t-1.5 16t2 14t11 5t30 2l46 2h36.5t47.5 7q54 16 54 113q0 42 -16 62q-27 32 -88 32q-66 0 -87 1.5t-25 6.5t-4 15v4l-1 16q0 7 9 9q20 0 59 3q51 4 90 4q45 0 67 23
q34 36 34 93q0 53 -23 83q-44 54 -140 54h-240q-96 -6 -106 -79q-2 -16 -2 -101q0 -46 0.5 -94t1 -81t1.5 -33l-1 -204q0 -103 11 -153.5t49 -66.5t118 -16zM271 836q36 0 65.5 26.5t29.5 67.5q0 24 -13 52q-64 134 -138 134q-36 0 -62 -27t-26 -65q0 -18 7 -37
q23 -61 64 -114q29 -37 73 -37z" />
    <glyph glyph-name="Eacute" unicode="&#xc9;" horiz-adv-x="561" 
d="M209 -22q43 0 101 2q42 1 93 1.5t88.5 31t37.5 85.5t-28.5 92t-72.5 43q-91 0 -143 1q-7 1 -8.5 7t-1.5 16t2 14t11 5t30 2l46 2h36.5t47.5 7q54 16 54 113q0 42 -16 62q-27 32 -88 32q-66 0 -87 1.5t-25 6.5t-4 15v4l-1 16q0 7 9 9q20 0 59 3q51 4 90 4q45 0 67 23
q34 36 34 93q0 53 -23 83q-44 54 -140 54h-240q-96 -6 -106 -79q-2 -16 -2 -101q0 -46 0.5 -94t1 -81t1.5 -33l-1 -204q0 -103 11 -153.5t49 -66.5t118 -16zM269 846q28 0 47 11.5t42 42.5q69 93 74 125l2 18q0 38 -25.5 62.5t-59.5 24.5q-19 0 -39 -9q-58 -28 -117 -124
q-17 -29 -17 -57q0 -38 26 -66t67 -28z" />
    <glyph glyph-name="Ecircumflex" unicode="&#xca;" horiz-adv-x="561" 
d="M209 -22q43 0 101 2q42 1 93 1.5t88.5 31t37.5 85.5t-28.5 92t-72.5 43q-91 0 -143 1q-7 1 -8.5 7t-1.5 16t2 14t11 5t30 2l46 2h36.5t47.5 7q54 16 54 113q0 42 -16 62q-27 32 -88 32q-66 0 -87 1.5t-25 6.5t-4 15v4l-1 16q0 7 9 9q20 0 59 3q51 4 90 4q45 0 67 23
q34 36 34 93q0 53 -23 83q-44 54 -140 54h-240q-96 -6 -106 -79q-2 -16 -2 -101q0 -46 0.5 -94t1 -81t1.5 -33l-1 -204q0 -103 11 -153.5t49 -66.5t118 -16zM359 834q26 0 46 18.5t20 47.5q-1 33 -18 52l-18 20q-38 44 -64 67.5t-52 23.5q-39 0 -98 -59q-49 -48 -62 -119
q2 -8 2 -12.5t1 -7.5q10 -30 36 -30q6 0 13 2q33 11 73 58q18 25 28 25q3 0 23 -30l19 -31q24 -25 51 -25z" />
    <glyph glyph-name="Edieresis" unicode="&#xcb;" horiz-adv-x="561" 
d="M209 -22q43 0 101 2q42 1 93 1.5t88.5 31t37.5 85.5t-28.5 92t-72.5 43q-91 0 -143 1q-7 1 -8.5 7t-1.5 16t2 14t11 5t30 2l46 2h36.5t47.5 7q54 16 54 113q0 42 -16 62q-27 32 -88 32q-66 0 -87 1.5t-25 6.5t-4 15v4l-1 16q0 7 9 9q20 0 59 3q51 4 90 4q45 0 67 23
q34 36 34 93q0 53 -23 83q-44 54 -140 54h-240q-96 -6 -106 -79q-2 -16 -2 -101q0 -46 0.5 -94t1 -81t1.5 -33l-1 -204q0 -103 11 -153.5t49 -66.5t118 -16zM338 835q25 0 46.5 17t21.5 51q0 35 -21 51.5t-47 16.5t-47.5 -17t-21.5 -51t21.5 -51t47.5 -17zM178 836
q23 0 43 16t20 47q0 32 -20 47.5t-44 15.5q-23 0 -43 -15.5t-20 -47.5q0 -31 20 -47t44 -16z" />
    <glyph glyph-name="Igrave" unicode="&#xcc;" horiz-adv-x="342" 
d="M148 -9q35 0 66 13.5t50.5 49.5t19.5 102q4 104 4 228q0 223 -5 316q-4 48 -39.5 79.5t-87.5 31.5t-85 -33t-38 -86q-2 -15 -3 -29.5t-1.5 -36.5t-0.5 -64l3 -384l-1 -27q0 -72 25 -116t93 -44zM156 835q36 0 65.5 26.5t29.5 67.5q0 24 -13 52q-64 134 -138 134
q-36 0 -62 -27t-26 -65q0 -18 7 -37q23 -61 64 -114q29 -37 73 -37z" />
    <glyph glyph-name="Iacute" unicode="&#xcd;" horiz-adv-x="342" 
d="M148 -9q35 0 66 13.5t50.5 49.5t19.5 102q4 104 4 228q0 223 -5 316q-4 48 -39.5 79.5t-87.5 31.5t-85 -33t-38 -86q-2 -15 -3 -29.5t-1.5 -36.5t-0.5 -64l3 -384l-1 -27q0 -72 25 -116t93 -44zM151 838q28 0 47 11.5t42 42.5q69 93 74 125l2 18q0 38 -25.5 62.5
t-59.5 24.5q-19 0 -39 -9q-58 -28 -117 -124q-17 -29 -17 -57q0 -38 26 -66t67 -28z" />
    <glyph glyph-name="Icircumflex" unicode="&#xce;" horiz-adv-x="342" 
d="M148 -9q35 0 66 13.5t50.5 49.5t19.5 102q4 104 4 228q0 223 -5 316q-4 48 -39.5 79.5t-87.5 31.5t-85 -33t-38 -86q-2 -15 -3 -29.5t-1.5 -36.5t-0.5 -64l3 -384l-1 -27q0 -72 25 -116t93 -44zM242 826q26 0 46 18.5t20 47.5q-1 33 -18 52l-18 20q-38 44 -64 67.5
t-52 23.5q-39 0 -98 -59q-49 -48 -62 -119q2 -8 2 -12.5t1 -7.5q10 -30 36 -30q6 0 13 2q33 11 73 58q18 25 28 25q3 0 23 -30l19 -31q24 -25 51 -25z" />
    <glyph glyph-name="Idieresis" unicode="&#xcf;" horiz-adv-x="342" 
d="M148 -9q35 0 66 13.5t50.5 49.5t19.5 102q4 104 4 228q0 223 -5 316q-4 48 -39.5 79.5t-87.5 31.5t-85 -33t-38 -86q-2 -15 -3 -29.5t-1.5 -36.5t-0.5 -64l3 -384l-1 -27q0 -72 25 -116t93 -44zM228 839q25 0 46.5 17t21.5 51q0 35 -21 51.5t-47 16.5t-47.5 -17
t-21.5 -51t21.5 -51t47.5 -17zM68 840q23 0 43 16t20 47q0 32 -20 47.5t-44 15.5q-23 0 -43 -15.5t-20 -47.5q0 -31 20 -47t44 -16z" />
    <glyph glyph-name="Eth" unicode="&#xd0;" horiz-adv-x="596" 
d="M141 -18q227 0 337 134q95 115 96 290q0 99 -40 191t-128.5 150t-233.5 60q-52 0 -93.5 -43.5t-45.5 -105.5q-3 -75 -3 -257l1 -131q0 -130 1 -146q3 -30 17 -62.5t38 -56t54 -23.5zM272 308q-3 0 -3 1q1 12 1 177q1 3 4 3q7 0 19.5 -9t22.5 -29t10 -55q0 -33 -11 -52.5
t-24.5 -27.5t-18.5 -8zM32 296l53 1v1h64q31 0 47 2t32 10q28 13 41.5 36.5t13.5 48.5q0 37 -27.5 67.5t-81.5 30.5h-60q-65 0 -97 -0.5t-47.5 -3.5t-26.5 -10q-29 -15 -43 -38t-14 -48q0 -26 15.5 -50t45.5 -36q38 -11 85 -11z" />
    <glyph glyph-name="Ntilde" unicode="&#xd1;" horiz-adv-x="792" 
d="M612 -22q55 0 81.5 30.5t35.5 103t9 197.5q0 169 -1 228l1 149q0 41 -37.5 78.5t-91.5 37.5q-97 0 -126 -99q-16 -56 -19 -204q0 -27 -15 -30q-7 0 -17 13l-27 37q-160 227 -202 261q-31 22 -70 22q-25 0 -48 -12.5t-38 -41.5t-16 -79q-1 0 -1.5 -73t-1 -171.5
t-0.5 -176.5q0 -110 1 -110q0 -29 9 -67q22 -93 120 -93q62 0 92.5 38.5t30.5 87.5q0 43 5 129v5q0 5 3.5 12t8.5 7q4 0 8 -4q38 -40 70 -88l30 -41q31 -44 85.5 -92.5t120.5 -53.5zM458 830q50 0 87.5 29.5t44.5 68.5l1 14q0 32 -20.5 51t-49.5 19q-26 0 -54 -18
q-6 -4 -9 -4q-4 0 -13.5 8.5t-48.5 32.5q-40 22 -82 22q-69 0 -123 -54q-35 -43 -35 -81q0 -28 16 -47t43 -19q24 0 56 21q13 9 19.5 15t11 9t8.5 3q12 0 49 -31q48 -39 99 -39z" />
    <glyph glyph-name="Ograve" unicode="&#xd2;" horiz-adv-x="614" 
d="M293 -21q-82 0 -149.5 55.5t-108 149t-40.5 207.5q0 113 40.5 207t108 149.5t149.5 55.5t149.5 -55.5t107.5 -149.5t40 -207q0 -114 -40 -207.5t-107.5 -149t-149.5 -55.5zM295 305q15 0 25 23.5t10 57.5q0 33 -10 57t-25 24q-14 0 -24.5 -24t-10.5 -57q0 -34 10.5 -57.5
t24.5 -23.5zM322 829q36 0 65.5 26.5t29.5 67.5q0 24 -13 52q-64 134 -138 134q-36 0 -62 -27t-26 -65q0 -18 7 -37q23 -61 64 -114q29 -37 73 -37z" />
    <glyph glyph-name="Oacute" unicode="&#xd3;" horiz-adv-x="614" 
d="M293 -21q-82 0 -149.5 55.5t-108 149t-40.5 207.5q0 113 40.5 207t108 149.5t149.5 55.5t149.5 -55.5t107.5 -149.5t40 -207q0 -114 -40 -207.5t-107.5 -149t-149.5 -55.5zM295 305q15 0 25 23.5t10 57.5q0 33 -10 57t-25 24q-14 0 -24.5 -24t-10.5 -57q0 -34 10.5 -57.5
t24.5 -23.5zM318 833q28 0 47 11.5t42 42.5q69 93 74 125l2 18q0 38 -25.5 62.5t-59.5 24.5q-19 0 -39 -9q-58 -28 -117 -124q-17 -29 -17 -57q0 -38 26 -66t67 -28z" />
    <glyph glyph-name="Ocircumflex" unicode="&#xd4;" horiz-adv-x="614" 
d="M293 -21q-82 0 -149.5 55.5t-108 149t-40.5 207.5q0 113 40.5 207t108 149.5t149.5 55.5t149.5 -55.5t107.5 -149.5t40 -207q0 -114 -40 -207.5t-107.5 -149t-149.5 -55.5zM295 305q15 0 25 23.5t10 57.5q0 33 -10 57t-25 24q-14 0 -24.5 -24t-10.5 -57q0 -34 10.5 -57.5
t24.5 -23.5zM408 822q26 0 46 18.5t20 47.5q-1 33 -18 52l-18 20q-38 44 -64 67.5t-52 23.5q-39 0 -98 -59q-49 -48 -62 -119q2 -8 2 -12.5t1 -7.5q10 -30 36 -30q6 0 13 2q33 11 73 58q18 25 28 25q3 0 23 -30l19 -31q24 -25 51 -25z" />
    <glyph glyph-name="Otilde" unicode="&#xd5;" horiz-adv-x="614" 
d="M293 -21q-82 0 -149.5 55.5t-108 149t-40.5 207.5q0 113 40.5 207t108 149.5t149.5 55.5t149.5 -55.5t107.5 -149.5t40 -207q0 -114 -40 -207.5t-107.5 -149t-149.5 -55.5zM295 305q15 0 25 23.5t10 57.5q0 33 -10 57t-25 24q-14 0 -24.5 -24t-10.5 -57q0 -34 10.5 -57.5
t24.5 -23.5zM405 828q50 0 87.5 29.5t44.5 68.5l1 14q0 32 -20.5 51t-49.5 19q-26 0 -54 -18q-6 -4 -9 -4q-4 0 -13.5 8.5t-48.5 32.5q-40 22 -82 22q-69 0 -123 -54q-35 -43 -35 -81q0 -28 16 -47t43 -19q24 0 56 21q13 9 19.5 15t11 9t8.5 3q12 0 49 -31q48 -39 99 -39z
" />
    <glyph glyph-name="Odieresis" unicode="&#xd6;" horiz-adv-x="614" 
d="M293 -21q-82 0 -149.5 55.5t-108 149t-40.5 207.5q0 113 40.5 207t108 149.5t149.5 55.5t149.5 -55.5t107.5 -149.5t40 -207q0 -114 -40 -207.5t-107.5 -149t-149.5 -55.5zM295 305q15 0 25 23.5t10 57.5q0 33 -10 57t-25 24q-14 0 -24.5 -24t-10.5 -57q0 -34 10.5 -57.5
t24.5 -23.5zM395 830q25 0 46.5 17t21.5 51q0 35 -21 51.5t-47 16.5t-47.5 -17t-21.5 -51t21.5 -51t47.5 -17zM235 831q23 0 43 16t20 47q0 32 -20 47.5t-44 15.5q-23 0 -43 -15.5t-20 -47.5q0 -31 20 -47t44 -16z" />
    <glyph glyph-name="multiply" unicode="&#xd7;" horiz-adv-x="483" 
d="M350 135q33 0 64 20q46 32 46 91q0 30 -16.5 58t-37.5 51q-4 4 -4 7q0 7 32 38q29 31 29 69q0 36 -25 69q-35 40 -82 40q-26 0 -51.5 -14.5t-46.5 -33.5q-11 -9 -12 -9q-3 0 -17 13q-24 24 -53 42.5t-59 18.5q-34 0 -63 -23q-34 -33 -34 -74q0 -38 30 -75q37 -41 37 -46
q0 -3 -3 -5q-10 -10 -18 -21l-12 -13q-31 -36 -31 -78q0 -43 31 -81q22 -20 42 -30t48 -10q41 0 75 29q22 23 25 23t8 -6q22 -25 44.5 -37.5t53.5 -12.5z" />
    <glyph glyph-name="Oslash" unicode="&#xd8;" horiz-adv-x="627" 
d="M143 -27q-17 0 -36 8q-76 40 -76 107q0 39 20 82q-47 99 -47 221q0 113 40.5 207t108 149.5t149.5 55.5q40 0 76 -13q33 47 80 47q27 0 62 -17q53 -29 53 -91q0 -48 -24 -94l-4 -8q54 -106 54 -236q0 -114 -40 -207.5t-107.5 -149t-149.5 -55.5q-52 0 -98 22
q-25 -28 -61 -28zM304 305q15 0 25 23.5t10 57.5q0 33 -10 57t-25 24q-14 0 -24.5 -24t-10.5 -57q0 -34 10.5 -57.5t24.5 -23.5z" />
    <glyph glyph-name="Ugrave" unicode="&#xd9;" horiz-adv-x="663" 
d="M319 -19q92 0 157.5 49.5t101 122.5t35.5 145q7 105 7 186q0 61 -2 108l-1 66q0 48 -22.5 80t-53 47.5t-55.5 15.5q-47 0 -83.5 -42t-39.5 -97q-3 -107 -3 -202q0 -100 -4 -134.5t-27 -34.5q-22 0 -27.5 31.5t-5.5 77.5v67l-1 50l1 66q0 63 -12 109q-5 12 -15 32
q-39 75 -104 75q-89 0 -121 -73q-26 -59 -26 -228q0 -92 7 -191q3 -50 20.5 -106.5t52 -106t89 -81.5t132.5 -32zM320 830q36 0 65.5 26.5t29.5 67.5q0 24 -13 52q-64 134 -138 134q-36 0 -62 -27t-26 -65q0 -18 7 -37q23 -61 64 -114q29 -37 73 -37z" />
    <glyph glyph-name="Uacute" unicode="&#xda;" horiz-adv-x="663" 
d="M319 -19q92 0 157.5 49.5t101 122.5t35.5 145q7 105 7 186q0 61 -2 108l-1 66q0 48 -22.5 80t-53 47.5t-55.5 15.5q-47 0 -83.5 -42t-39.5 -97q-3 -107 -3 -202q0 -100 -4 -134.5t-27 -34.5q-22 0 -27.5 31.5t-5.5 77.5v67l-1 50l1 66q0 63 -12 109q-5 12 -15 32
q-39 75 -104 75q-89 0 -121 -73q-26 -59 -26 -228q0 -92 7 -191q3 -50 20.5 -106.5t52 -106t89 -81.5t132.5 -32zM328 828q28 0 47 11.5t42 42.5q69 93 74 125l2 18q0 38 -25.5 62.5t-59.5 24.5q-19 0 -39 -9q-58 -28 -117 -124q-17 -29 -17 -57q0 -38 26 -66t67 -28z" />
    <glyph glyph-name="Ucircumflex" unicode="&#xdb;" horiz-adv-x="663" 
d="M319 -19q92 0 157.5 49.5t101 122.5t35.5 145q7 105 7 186q0 61 -2 108l-1 66q0 48 -22.5 80t-53 47.5t-55.5 15.5q-47 0 -83.5 -42t-39.5 -97q-3 -107 -3 -202q0 -100 -4 -134.5t-27 -34.5q-22 0 -27.5 31.5t-5.5 77.5v67l-1 50l1 66q0 63 -12 109q-5 12 -15 32
q-39 75 -104 75q-89 0 -121 -73q-26 -59 -26 -228q0 -92 7 -191q3 -50 20.5 -106.5t52 -106t89 -81.5t132.5 -32zM414 829q26 0 46 18.5t20 47.5q-1 33 -18 52l-18 20q-38 44 -64 67.5t-52 23.5q-39 0 -98 -59q-49 -48 -62 -119q2 -8 2 -12.5t1 -7.5q10 -30 36 -30q6 0 13 2
q33 11 73 58q18 25 28 25q3 0 23 -30l19 -31q24 -25 51 -25z" />
    <glyph glyph-name="Udieresis" unicode="&#xdc;" horiz-adv-x="663" 
d="M319 -19q92 0 157.5 49.5t101 122.5t35.5 145q7 105 7 186q0 61 -2 108l-1 66q0 48 -22.5 80t-53 47.5t-55.5 15.5q-47 0 -83.5 -42t-39.5 -97q-3 -107 -3 -202q0 -100 -4 -134.5t-27 -34.5q-22 0 -27.5 31.5t-5.5 77.5v67l-1 50l1 66q0 63 -12 109q-5 12 -15 32
q-39 75 -104 75q-89 0 -121 -73q-26 -59 -26 -228q0 -92 7 -191q3 -50 20.5 -106.5t52 -106t89 -81.5t132.5 -32zM405 833q25 0 46.5 17t21.5 51q0 35 -21 51.5t-47 16.5t-47.5 -17t-21.5 -51t21.5 -51t47.5 -17zM245 834q23 0 43 16t20 47q0 32 -20 47.5t-44 15.5
q-23 0 -43 -15.5t-20 -47.5q0 -31 20 -47t44 -16z" />
    <glyph glyph-name="Yacute" unicode="&#xdd;" horiz-adv-x="604" 
d="M280 -5q30 0 58.5 20t40.5 49q23 60 23 143q0 31 -1.5 58.5t-1.5 49.5q0 40 11 61q132 196 168 256q15 25 20 38l2 5q7 18 7 37q0 41 -30.5 72.5t-71.5 31.5q-34 0 -70 -29q-12 -11 -38 -48q-32 -45 -97 -126q-6 -6 -14 -6q-9 0 -15 9q-12 22 -33 51l-52 75
q-21 28 -54 50.5t-67 22.5q-35 0 -60 -29.5t-25 -59.5q0 -36 28 -90t83 -146l61 -105q8 -20 8 -67l-1 -88q0 -50 5 -102q9 -65 42.5 -99t73.5 -34zM341 831q28 0 47 11.5t42 42.5q69 93 74 125l2 18q0 38 -25.5 62.5t-59.5 24.5q-19 0 -39 -9q-58 -28 -117 -124
q-17 -29 -17 -57q0 -38 26 -66t67 -28z" />
    <glyph glyph-name="Thorn" unicode="&#xde;" horiz-adv-x="614" 
d="M308 344q-2 0 -7 6q-3 2 -3 10l1 76q1 17 10 17q12 0 25 -18.5t13 -32.5q0 -15 -7.5 -28t-17 -21.5t-14.5 -8.5zM153 -112q50 0 89 39.5t47 94.5q8 69 8 88q0 15 1.5 16t20.5 1q102 12 165.5 57t92.5 109.5t29 130.5q0 100 -59 175q-43 51 -81 74.5t-91 29.5q-36 4 -92 5
q-6 43 -38 72q-36 31 -88 31t-85 -33t-38 -86q-4 -27 -4 -66q-1 -22 -1 -265q1 -106 1 -337q0 -96 86 -129q19 -7 37 -7z" />
    <glyph glyph-name="germandbls" unicode="&#xdf;" horiz-adv-x="681" 
d="M469 9l-43 7q-45 10 -68 35q-47 57 -48 105q0 50 24 72q16 16 36 16q13 0 26 -6q21 -12 47 -42q7 -10 19 -10q16 0 16 13q0 7 -6 19q-10 17 -50 44q-69 38 -96 96q-11 24 -11 53q0 66 39 118q8 14 8 26q0 14 -9 26q-13 17 -33 17q-9 0 -18 -3l-5 -2q-38 -28 -40 -75v-84
l-3 -293q0 -54 -38 -92t-94 -40q-40 0 -76 30t-36 81v155l1 133l-1 92q0 62 22 138.5t86 131.5t193 55q88 0 183 -42.5t104 -143.5q-1 -68 -26 -100.5t-52 -48.5q-38 -25 -38 -48q2 -31 22.5 -44t43.5 -19q11 -3 20 -7q78 -37 98 -122q5 -24 5 -48q0 -59 -40 -122.5
t-162 -70.5z" />
    <glyph glyph-name="agrave" unicode="&#xe0;" 
d="M85 -9q40 0 70 24.5t49 65.5q2 6 6 10t29 4l74 -1h83q24 0 33 -23q19 -38 50 -56.5t63 -18.5q30 0 55 14t39 41q10 21 10 42q0 26 -19 74q-26 68 -88 257q-44 131 -77 220.5t-59 122.5q-37 41 -86 41q-42 0 -76 -32q-6 -6 -11 -13q-10 -14 -37 -81q-13 -30 -211 -529
q-10 -26 -10 -52q0 -32 15 -64q13 -26 31.5 -33.5t35.5 -9.5l8 -1q12 -2 23 -2zM313 297q-17 0 -17 4q5 10 14 26t14 29q3 0 5 -1q8 -24 16 -39q6 -11 6 -15q0 -2 -2 -2zM381 840q36 0 65.5 26.5t29.5 67.5q0 24 -13 52q-64 134 -138 134q-36 0 -62 -27t-26 -65q0 -18 7 -37
q23 -61 64 -114q29 -37 73 -37z" />
    <glyph glyph-name="aacute" unicode="&#xe1;" 
d="M85 -9q40 0 70 24.5t49 65.5q2 6 6 10t29 4l74 -1h83q24 0 33 -23q19 -38 50 -56.5t63 -18.5q30 0 55 14t39 41q10 21 10 42q0 26 -19 74q-26 68 -88 257q-44 131 -77 220.5t-59 122.5q-37 41 -86 41q-42 0 -76 -32q-6 -6 -11 -13q-10 -14 -37 -81q-13 -30 -211 -529
q-10 -26 -10 -52q0 -32 15 -64q13 -26 31.5 -33.5t35.5 -9.5l8 -1q12 -2 23 -2zM313 297q-17 0 -17 4q5 10 14 26t14 29q3 0 5 -1q8 -24 16 -39q6 -11 6 -15q0 -2 -2 -2zM364 847q28 0 47 11.5t42 42.5q69 93 74 125l2 18q0 38 -25.5 62.5t-59.5 24.5q-19 0 -39 -9
q-58 -28 -117 -124q-17 -29 -17 -57q0 -38 26 -66t67 -28z" />
    <glyph glyph-name="acircumflex" unicode="&#xe2;" 
d="M85 -9q40 0 70 24.5t49 65.5q2 6 6 10t29 4l74 -1h83q24 0 33 -23q19 -38 50 -56.5t63 -18.5q30 0 55 14t39 41q10 21 10 42q0 26 -19 74q-26 68 -88 257q-44 131 -77 220.5t-59 122.5q-37 41 -86 41q-42 0 -76 -32q-6 -6 -11 -13q-10 -14 -37 -81q-13 -30 -211 -529
q-10 -26 -10 -52q0 -32 15 -64q13 -26 31.5 -33.5t35.5 -9.5l8 -1q12 -2 23 -2zM313 297q-17 0 -17 4q5 10 14 26t14 29q3 0 5 -1q8 -24 16 -39q6 -11 6 -15q0 -2 -2 -2zM465 827q26 0 46 18.5t20 47.5q-1 33 -18 52l-18 20q-38 44 -64 67.5t-52 23.5q-39 0 -98 -59
q-49 -48 -62 -119q2 -8 2 -12.5t1 -7.5q10 -30 36 -30q6 0 13 2q33 11 73 58q18 25 28 25q3 0 23 -30l19 -31q24 -25 51 -25z" />
    <glyph glyph-name="atilde" unicode="&#xe3;" 
d="M85 -9q40 0 70 24.5t49 65.5q2 6 6 10t29 4l74 -1h83q24 0 33 -23q19 -38 50 -56.5t63 -18.5q30 0 55 14t39 41q10 21 10 42q0 26 -19 74q-26 68 -88 257q-44 131 -77 220.5t-59 122.5q-37 41 -86 41q-42 0 -76 -32q-6 -6 -11 -13q-10 -14 -37 -81q-13 -30 -211 -529
q-10 -26 -10 -52q0 -32 15 -64q13 -26 31.5 -33.5t35.5 -9.5l8 -1q12 -2 23 -2zM313 297q-17 0 -17 4q5 10 14 26t14 29q3 0 5 -1q8 -24 16 -39q6 -11 6 -15q0 -2 -2 -2zM441 841q50 0 87.5 29.5t44.5 68.5l1 14q0 32 -20.5 51t-49.5 19q-26 0 -54 -18q-6 -4 -9 -4
q-4 0 -13.5 8.5t-48.5 32.5q-40 22 -82 22q-69 0 -123 -54q-35 -43 -35 -81q0 -28 16 -47t43 -19q24 0 56 21q13 9 19.5 15t11 9t8.5 3q12 0 49 -31q48 -39 99 -39z" />
    <glyph glyph-name="adieresis" unicode="&#xe4;" 
d="M85 -9q40 0 70 24.5t49 65.5q2 6 6 10t29 4l74 -1h83q24 0 33 -23q19 -38 50 -56.5t63 -18.5q30 0 55 14t39 41q10 21 10 42q0 26 -19 74q-26 68 -88 257q-44 131 -77 220.5t-59 122.5q-37 41 -86 41q-42 0 -76 -32q-6 -6 -11 -13q-10 -14 -37 -81q-13 -30 -211 -529
q-10 -26 -10 -52q0 -32 15 -64q13 -26 31.5 -33.5t35.5 -9.5l8 -1q12 -2 23 -2zM313 297q-17 0 -17 4q5 10 14 26t14 29q3 0 5 -1q8 -24 16 -39q6 -11 6 -15q0 -2 -2 -2zM453 847q25 0 46.5 17t21.5 51q0 35 -21 51.5t-47 16.5t-47.5 -17t-21.5 -51t21.5 -51t47.5 -17z
M293 848q23 0 43 16t20 47q0 32 -20 47.5t-44 15.5q-23 0 -43 -15.5t-20 -47.5q0 -31 20 -47t44 -16z" />
    <glyph glyph-name="aring" unicode="&#xe5;" 
d="M85 -9q40 0 70 24.5t49 65.5q2 6 6 10t29 4l74 -1h83q24 0 33 -23q19 -38 50 -56.5t63 -18.5q30 0 55 14t39 41q10 21 10 42q0 26 -19 74q-26 68 -88 257q-44 131 -77 220.5t-59 122.5q-37 41 -86 41q-42 0 -76 -32q-6 -6 -11 -13q-10 -14 -37 -81q-13 -30 -211 -529
q-10 -26 -10 -52q0 -32 15 -64q13 -26 31.5 -33.5t35.5 -9.5l8 -1q12 -2 23 -2zM313 297q-17 0 -17 4q5 10 14 26t14 29q3 0 5 -1q8 -24 16 -39q6 -11 6 -15q0 -2 -2 -2zM369 833q43 0 77.5 32.5t34.5 82.5q-1 47 -32.5 79.5t-80.5 32.5q-46 0 -80.5 -33t-34.5 -84
q2 -45 33 -77.5t77 -32.5h6zM370 923q-10 0 -18 7.5t-8 18.5q0 10 6 16t16 7q11 0 18 -7t7 -18q0 -10 -6 -16.5t-15 -7.5z" />
    <glyph glyph-name="ae" unicode="&#xe6;" horiz-adv-x="993" 
d="M53 -9q40 0 70 24.5t49 65.5q2 6 6 10t29 4l74 -1h83q24 0 33 -23q19 -38 50 -56.5t63 -18.5q30 0 55 14t39 41q10 21 10 42q0 26 -19 74q-26 68 -88 257q-44 131 -77 220.5t-59 122.5q-37 41 -86 41q-42 0 -76 -32q-6 -6 -11 -13q-10 -14 -37 -81q-13 -30 -211 -529
q-10 -26 -10 -52q0 -32 15 -64q13 -26 31.5 -33.5t35.5 -9.5l8 -1q12 -2 23 -2zM281 297q-17 0 -17 4q5 10 14 26t14 29q3 0 5 -1q8 -24 16 -39q6 -11 6 -15q0 -2 -2 -2zM678 -22q43 0 101 2q42 1 93 1.5t88.5 31t37.5 85.5t-28.5 92t-72.5 43q-91 0 -143 1q-7 1 -8.5 7
t-1.5 16t2 14t11 5t30 2l46 2h36.5t47.5 7q54 16 54 113q0 42 -16 62q-27 32 -88 32q-66 0 -87 1.5t-25 6.5t-4 15v4l-1 16q0 7 9 9q20 0 59 3q51 4 90 4q45 0 67 23q34 36 34 93q0 53 -23 83q-44 54 -140 54h-240q-96 -6 -106 -79q-2 -16 -2 -101q0 -46 0.5 -94t1 -81
t1.5 -33l-1 -204q0 -103 11 -153.5t49 -66.5t118 -16z" />
    <glyph glyph-name="ccedilla" unicode="&#xe7;" horiz-adv-x="609" 
d="M311 -16q70 0 135.5 33.5t108.5 99t43 126.5q0 69 -61 99q-29 12 -50 12q-31 0 -51 -17t-34 -36q-11 -13 -20.5 -22.5t-20.5 -10.5q-16 0 -39.5 12t-41 38.5t-17.5 70.5q1 24 10 51.5t25.5 48t37.5 20.5q13 0 26 -9q28 -16 57 -16q22 0 54 10q37 13 55 42t18 64
q0 39 -23 76q-41 64 -98 95t-118 31q-66 0 -127.5 -35.5t-103.5 -106.5q-74 -127 -74 -280q0 -113 42 -217q39 -89 112 -134t155 -45zM382 -367q71 6 110.5 54t39.5 104q0 49 -34 89.5t-108 47.5q-6 0 -8 1t-2 5l3 49q0 23 -8 40.5t-34 26.5q-10 3 -20 3q-33 0 -51 -32
t-18 -73q0 -34 14.5 -66t44.5 -47q18 -8 32 -12q21 -6 21 -12q0 -3 -5.5 -8t-17 -10.5t-20.5 -11.5q-35 -30 -35 -66q0 -31 23 -56.5t65 -25.5h8z" />
    <glyph glyph-name="egrave" unicode="&#xe8;" horiz-adv-x="566" 
d="M215 -22q43 0 101 2q42 1 93 1.5t88.5 31t37.5 85.5t-28.5 92t-72.5 43q-91 0 -143 1q-7 1 -8.5 7t-1.5 16t2 14t11 5t30 2l46 2h36.5t47.5 7q54 16 54 113q0 42 -16 62q-27 32 -88 32q-66 0 -87 1.5t-25 6.5t-4 15v4l-1 16q0 7 9 9q20 0 59 3q51 4 90 4q45 0 67 23
q34 36 34 93q0 53 -23 83q-44 54 -140 54h-240q-96 -6 -106 -79q-2 -16 -2 -101q0 -46 0.5 -94t1 -81t1.5 -33l-1 -204q0 -103 11 -153.5t49 -66.5t118 -16zM269 834q36 0 65.5 26.5t29.5 67.5q0 24 -13 52q-64 134 -138 134q-36 0 -62 -27t-26 -65q0 -18 7 -37
q23 -61 64 -114q29 -37 73 -37z" />
    <glyph glyph-name="eacute" unicode="&#xe9;" horiz-adv-x="566" 
d="M215 -22q43 0 101 2q42 1 93 1.5t88.5 31t37.5 85.5t-28.5 92t-72.5 43q-91 0 -143 1q-7 1 -8.5 7t-1.5 16t2 14t11 5t30 2l46 2h36.5t47.5 7q54 16 54 113q0 42 -16 62q-27 32 -88 32q-66 0 -87 1.5t-25 6.5t-4 15v4l-1 16q0 7 9 9q20 0 59 3q51 4 90 4q45 0 67 23
q34 36 34 93q0 53 -23 83q-44 54 -140 54h-240q-96 -6 -106 -79q-2 -16 -2 -101q0 -46 0.5 -94t1 -81t1.5 -33l-1 -204q0 -103 11 -153.5t49 -66.5t118 -16zM268 836q28 0 47 11.5t42 42.5q69 93 74 125l2 18q0 38 -25.5 62.5t-59.5 24.5q-19 0 -39 -9q-58 -28 -117 -124
q-17 -29 -17 -57q0 -38 26 -66t67 -28z" />
    <glyph glyph-name="ecircumflex" unicode="&#xea;" horiz-adv-x="566" 
d="M215 -22q43 0 101 2q42 1 93 1.5t88.5 31t37.5 85.5t-28.5 92t-72.5 43q-91 0 -143 1q-7 1 -8.5 7t-1.5 16t2 14t11 5t30 2l46 2h36.5t47.5 7q54 16 54 113q0 42 -16 62q-27 32 -88 32q-66 0 -87 1.5t-25 6.5t-4 15v4l-1 16q0 7 9 9q20 0 59 3q51 4 90 4q45 0 67 23
q34 36 34 93q0 53 -23 83q-44 54 -140 54h-240q-96 -6 -106 -79q-2 -16 -2 -101q0 -46 0.5 -94t1 -81t1.5 -33l-1 -204q0 -103 11 -153.5t49 -66.5t118 -16zM370 831q26 0 46 18.5t20 47.5q-1 33 -18 52l-18 20q-38 44 -64 67.5t-52 23.5q-39 0 -98 -59q-49 -48 -62 -119
q2 -8 2 -12.5t1 -7.5q10 -30 36 -30q6 0 13 2q33 11 73 58q18 25 28 25q3 0 23 -30l19 -31q24 -25 51 -25z" />
    <glyph glyph-name="edieresis" unicode="&#xeb;" horiz-adv-x="566" 
d="M215 -22q43 0 101 2q42 1 93 1.5t88.5 31t37.5 85.5t-28.5 92t-72.5 43q-91 0 -143 1q-7 1 -8.5 7t-1.5 16t2 14t11 5t30 2l46 2h36.5t47.5 7q54 16 54 113q0 42 -16 62q-27 32 -88 32q-66 0 -87 1.5t-25 6.5t-4 15v4l-1 16q0 7 9 9q20 0 59 3q51 4 90 4q45 0 67 23
q34 36 34 93q0 53 -23 83q-44 54 -140 54h-240q-96 -6 -106 -79q-2 -16 -2 -101q0 -46 0.5 -94t1 -81t1.5 -33l-1 -204q0 -103 11 -153.5t49 -66.5t118 -16zM345 840q25 0 46.5 17t21.5 51q0 35 -21 51.5t-47 16.5t-47.5 -17t-21.5 -51t21.5 -51t47.5 -17zM185 841
q23 0 43 16t20 47q0 32 -20 47.5t-44 15.5q-23 0 -43 -15.5t-20 -47.5q0 -31 20 -47t44 -16z" />
    <glyph glyph-name="igrave" unicode="&#xec;" horiz-adv-x="339" 
d="M139 -9q34 0 65.5 13.5t51 49.5t19.5 102q4 104 4 228q0 223 -5 316q-4 48 -39.5 79.5t-87.5 31.5q-53 0 -85.5 -33t-37.5 -86q-2 -15 -3 -29.5t-1.5 -36.5t-0.5 -64l3 -384l-1 -27q0 -72 25 -116t93 -44zM142 837q36 0 65.5 26.5t29.5 67.5q0 24 -13 52
q-64 134 -138 134q-36 0 -62 -27t-26 -65q0 -18 7 -37q23 -61 64 -114q29 -37 73 -37z" />
    <glyph glyph-name="iacute" unicode="&#xed;" horiz-adv-x="339" 
d="M139 -9q34 0 65.5 13.5t51 49.5t19.5 102q4 104 4 228q0 223 -5 316q-4 48 -39.5 79.5t-87.5 31.5q-53 0 -85.5 -33t-37.5 -86q-2 -15 -3 -29.5t-1.5 -36.5t-0.5 -64l3 -384l-1 -27q0 -72 25 -116t93 -44zM146 839q28 0 47 11.5t42 42.5q69 93 74 125l2 18
q0 38 -25.5 62.5t-59.5 24.5q-19 0 -39 -9q-58 -28 -117 -124q-17 -29 -17 -57q0 -38 26 -66t67 -28z" />
    <glyph glyph-name="icircumflex" unicode="&#xee;" horiz-adv-x="339" 
d="M139 -9q34 0 65.5 13.5t51 49.5t19.5 102q4 104 4 228q0 223 -5 316q-4 48 -39.5 79.5t-87.5 31.5q-53 0 -85.5 -33t-37.5 -86q-2 -15 -3 -29.5t-1.5 -36.5t-0.5 -64l3 -384l-1 -27q0 -72 25 -116t93 -44zM237 820q26 0 46 18.5t20 47.5q-1 33 -18 52l-18 20
q-38 44 -64 67.5t-52 23.5q-39 0 -98 -59q-49 -48 -62 -119q2 -8 2 -12.5t1 -7.5q10 -30 36 -30q6 0 13 2q33 11 73 58q18 25 28 25q3 0 23 -30l19 -31q24 -25 51 -25z" />
    <glyph glyph-name="idieresis" unicode="&#xef;" horiz-adv-x="339" 
d="M139 -9q34 0 65.5 13.5t51 49.5t19.5 102q4 104 4 228q0 223 -5 316q-4 48 -39.5 79.5t-87.5 31.5q-53 0 -85.5 -33t-37.5 -86q-2 -15 -3 -29.5t-1.5 -36.5t-0.5 -64l3 -384l-1 -27q0 -72 25 -116t93 -44zM217 836q25 0 46.5 17t21.5 51q0 35 -21 51.5t-47 16.5
t-47.5 -17t-21.5 -51t21.5 -51t47.5 -17zM57 837q23 0 43 16t20 47q0 32 -20 47.5t-44 15.5q-23 0 -43 -15.5t-20 -47.5q0 -31 20 -47t44 -16z" />
    <glyph glyph-name="ntilde" unicode="&#xf1;" horiz-adv-x="800" 
d="M621 -22q55 0 81.5 30.5t35.5 103t9 197.5q0 169 -1 228l1 149q0 41 -37.5 78.5t-91.5 37.5q-97 0 -126 -99q-16 -56 -19 -204q0 -27 -15 -30q-7 0 -17 13l-27 37q-160 227 -202 261q-31 22 -70 22q-25 0 -48 -12.5t-38 -41.5t-16 -79q-1 0 -1.5 -73t-1 -171.5
t-0.5 -176.5q0 -110 1 -110q0 -29 9 -67q22 -93 120 -93q62 0 92.5 38.5t30.5 87.5q0 43 5 129v5q0 5 3.5 12t8.5 7q4 0 8 -4q38 -40 70 -88l30 -41q31 -44 85.5 -92.5t120.5 -53.5zM465 837q50 0 87.5 29.5t44.5 68.5l1 14q0 32 -20.5 51t-49.5 19q-26 0 -54 -18
q-6 -4 -9 -4q-4 0 -13.5 8.5t-48.5 32.5q-40 22 -82 22q-69 0 -123 -54q-35 -43 -35 -81q0 -28 16 -47t43 -19q24 0 56 21q13 9 19.5 15t11 9t8.5 3q12 0 49 -31q48 -39 99 -39z" />
    <glyph glyph-name="ograve" unicode="&#xf2;" horiz-adv-x="618" 
d="M299 -21q-82 0 -149.5 55.5t-108 149t-40.5 207.5q0 113 40.5 207t108 149.5t149.5 55.5t149.5 -55.5t107.5 -149.5t40 -207q0 -114 -40 -207.5t-107.5 -149t-149.5 -55.5zM301 305q15 0 25 23.5t10 57.5q0 33 -10 57t-25 24q-14 0 -24.5 -24t-10.5 -57q0 -34 10.5 -57.5
t24.5 -23.5zM305 834q36 0 65.5 26.5t29.5 67.5q0 24 -13 52q-64 134 -138 134q-36 0 -62 -27t-26 -65q0 -18 7 -37q23 -61 64 -114q29 -37 73 -37z" />
    <glyph glyph-name="oacute" unicode="&#xf3;" horiz-adv-x="618" 
d="M299 -21q-82 0 -149.5 55.5t-108 149t-40.5 207.5q0 113 40.5 207t108 149.5t149.5 55.5t149.5 -55.5t107.5 -149.5t40 -207q0 -114 -40 -207.5t-107.5 -149t-149.5 -55.5zM301 305q15 0 25 23.5t10 57.5q0 33 -10 57t-25 24q-14 0 -24.5 -24t-10.5 -57q0 -34 10.5 -57.5
t24.5 -23.5zM325 845q28 0 47 11.5t42 42.5q69 93 74 125l2 18q0 38 -25.5 62.5t-59.5 24.5q-19 0 -39 -9q-58 -28 -117 -124q-17 -29 -17 -57q0 -38 26 -66t67 -28z" />
    <glyph glyph-name="ocircumflex" unicode="&#xf4;" horiz-adv-x="618" 
d="M299 -21q-82 0 -149.5 55.5t-108 149t-40.5 207.5q0 113 40.5 207t108 149.5t149.5 55.5t149.5 -55.5t107.5 -149.5t40 -207q0 -114 -40 -207.5t-107.5 -149t-149.5 -55.5zM301 305q15 0 25 23.5t10 57.5q0 33 -10 57t-25 24q-14 0 -24.5 -24t-10.5 -57q0 -34 10.5 -57.5
t24.5 -23.5zM418 834q26 0 46 18.5t20 47.5q-1 33 -18 52l-18 20q-38 44 -64 67.5t-52 23.5q-39 0 -98 -59q-49 -48 -62 -119q2 -8 2 -12.5t1 -7.5q10 -30 36 -30q6 0 13 2q33 11 73 58q18 25 28 25q3 0 23 -30l19 -31q24 -25 51 -25z" />
    <glyph glyph-name="otilde" unicode="&#xf5;" horiz-adv-x="618" 
d="M299 -21q-82 0 -149.5 55.5t-108 149t-40.5 207.5q0 113 40.5 207t108 149.5t149.5 55.5t149.5 -55.5t107.5 -149.5t40 -207q0 -114 -40 -207.5t-107.5 -149t-149.5 -55.5zM301 305q15 0 25 23.5t10 57.5q0 33 -10 57t-25 24q-14 0 -24.5 -24t-10.5 -57q0 -34 10.5 -57.5
t24.5 -23.5zM402 833q50 0 87.5 29.5t44.5 68.5l1 14q0 32 -20.5 51t-49.5 19q-26 0 -54 -18q-6 -4 -9 -4q-4 0 -13.5 8.5t-48.5 32.5q-40 22 -82 22q-69 0 -123 -54q-35 -43 -35 -81q0 -28 16 -47t43 -19q24 0 56 21q13 9 19.5 15t11 9t8.5 3q12 0 49 -31q48 -39 99 -39z
" />
    <glyph glyph-name="odieresis" unicode="&#xf6;" horiz-adv-x="618" 
d="M299 -21q-82 0 -149.5 55.5t-108 149t-40.5 207.5q0 113 40.5 207t108 149.5t149.5 55.5t149.5 -55.5t107.5 -149.5t40 -207q0 -114 -40 -207.5t-107.5 -149t-149.5 -55.5zM301 305q15 0 25 23.5t10 57.5q0 33 -10 57t-25 24q-14 0 -24.5 -24t-10.5 -57q0 -34 10.5 -57.5
t24.5 -23.5zM396 834q25 0 46.5 17t21.5 51q0 35 -21 51.5t-47 16.5t-47.5 -17t-21.5 -51t21.5 -51t47.5 -17zM236 835q23 0 43 16t20 47q0 32 -20 47.5t-44 15.5q-23 0 -43 -15.5t-20 -47.5q0 -31 20 -47t44 -16z" />
    <glyph glyph-name="divide" unicode="&#xf7;" horiz-adv-x="437" 
d="M166 280l52 1v1h64q32 0 48 2t32 10q27 14 41 37t14 49q0 37 -28 67.5t-82 30.5h-38q-73 0 -110 -1t-54 -4t-29 -9q-29 -15 -42.5 -38t-13.5 -48q0 -27 15.5 -51t45.5 -36q38 -11 85 -11zM212 513q41 1 68 28t29 68q-1 40 -28 66.5t-67 27.5q-40 -1 -67 -27.5t-28 -67.5
q1 -40 27.5 -66.5t65.5 -28.5zM219 56q40 1 66 26.5t27 65.5q-1 39 -27 65t-65 27q-39 -1 -64.5 -27t-27.5 -65q1 -39 26.5 -65t64.5 -27z" />
    <glyph glyph-name="oslash" unicode="&#xf8;" horiz-adv-x="624" 
d="M143 -27q-17 0 -36 8q-76 40 -76 107q0 39 20 82q-47 99 -47 221q0 113 40.5 207t108 149.5t149.5 55.5q40 0 76 -13q33 47 80 47q27 0 62 -17q53 -29 53 -91q0 -48 -24 -94l-4 -8q54 -106 54 -236q0 -114 -40 -207.5t-107.5 -149t-149.5 -55.5q-52 0 -98 22
q-25 -28 -61 -28zM304 305q15 0 25 23.5t10 57.5q0 33 -10 57t-25 24q-14 0 -24.5 -24t-10.5 -57q0 -34 10.5 -57.5t24.5 -23.5z" />
    <glyph glyph-name="ugrave" unicode="&#xf9;" horiz-adv-x="666" 
d="M324 -19q92 0 157.5 49.5t101 122.5t35.5 145q7 105 7 186q0 61 -2 108l-1 66q0 48 -22.5 80t-53 47.5t-55.5 15.5q-47 0 -83.5 -42t-39.5 -97q-3 -107 -3 -202q0 -100 -4 -134.5t-27 -34.5q-22 0 -27.5 31.5t-5.5 77.5v67l-1 50l1 66q0 63 -12 109q-5 12 -15 32
q-39 75 -104 75q-89 0 -121 -73q-26 -59 -26 -228q0 -92 7 -191q3 -50 20.5 -106.5t52 -106t89 -81.5t132.5 -32zM326 823q36 0 65.5 26.5t29.5 67.5q0 24 -13 52q-64 134 -138 134q-36 0 -62 -27t-26 -65q0 -18 7 -37q23 -61 64 -114q29 -37 73 -37z" />
    <glyph glyph-name="uacute" unicode="&#xfa;" horiz-adv-x="666" 
d="M324 -19q92 0 157.5 49.5t101 122.5t35.5 145q7 105 7 186q0 61 -2 108l-1 66q0 48 -22.5 80t-53 47.5t-55.5 15.5q-47 0 -83.5 -42t-39.5 -97q-3 -107 -3 -202q0 -100 -4 -134.5t-27 -34.5q-22 0 -27.5 31.5t-5.5 77.5v67l-1 50l1 66q0 63 -12 109q-5 12 -15 32
q-39 75 -104 75q-89 0 -121 -73q-26 -59 -26 -228q0 -92 7 -191q3 -50 20.5 -106.5t52 -106t89 -81.5t132.5 -32zM328 835q28 0 47 11.5t42 42.5q69 93 74 125l2 18q0 38 -25.5 62.5t-59.5 24.5q-19 0 -39 -9q-58 -28 -117 -124q-17 -29 -17 -57q0 -38 26 -66t67 -28z" />
    <glyph glyph-name="ucircumflex" unicode="&#xfb;" horiz-adv-x="666" 
d="M324 -19q92 0 157.5 49.5t101 122.5t35.5 145q7 105 7 186q0 61 -2 108l-1 66q0 48 -22.5 80t-53 47.5t-55.5 15.5q-47 0 -83.5 -42t-39.5 -97q-3 -107 -3 -202q0 -100 -4 -134.5t-27 -34.5q-22 0 -27.5 31.5t-5.5 77.5v67l-1 50l1 66q0 63 -12 109q-5 12 -15 32
q-39 75 -104 75q-89 0 -121 -73q-26 -59 -26 -228q0 -92 7 -191q3 -50 20.5 -106.5t52 -106t89 -81.5t132.5 -32zM411 829q26 0 46 18.5t20 47.5q-1 33 -18 52l-18 20q-38 44 -64 67.5t-52 23.5q-39 0 -98 -59q-49 -48 -62 -119q2 -8 2 -12.5t1 -7.5q10 -30 36 -30q6 0 13 2
q33 11 73 58q18 25 28 25q3 0 23 -30l19 -31q24 -25 51 -25z" />
    <glyph glyph-name="udieresis" unicode="&#xfc;" horiz-adv-x="666" 
d="M324 -19q92 0 157.5 49.5t101 122.5t35.5 145q7 105 7 186q0 61 -2 108l-1 66q0 48 -22.5 80t-53 47.5t-55.5 15.5q-47 0 -83.5 -42t-39.5 -97q-3 -107 -3 -202q0 -100 -4 -134.5t-27 -34.5q-22 0 -27.5 31.5t-5.5 77.5v67l-1 50l1 66q0 63 -12 109q-5 12 -15 32
q-39 75 -104 75q-89 0 -121 -73q-26 -59 -26 -228q0 -92 7 -191q3 -50 20.5 -106.5t52 -106t89 -81.5t132.5 -32zM399 840q25 0 46.5 17t21.5 51q0 35 -21 51.5t-47 16.5t-47.5 -17t-21.5 -51t21.5 -51t47.5 -17zM239 841q23 0 43 16t20 47q0 32 -20 47.5t-44 15.5
q-23 0 -43 -15.5t-20 -47.5q0 -31 20 -47t44 -16z" />
    <glyph glyph-name="yacute" unicode="&#xfd;" horiz-adv-x="607" 
d="M284 -5q30 0 58.5 20t40.5 49q23 60 23 143q0 31 -1.5 58.5t-1.5 49.5q0 40 11 61q132 196 168 256q15 25 20 38l2 5q7 18 7 37q0 41 -30.5 72.5t-71.5 31.5q-34 0 -70 -29q-12 -11 -38 -48q-32 -45 -97 -126q-6 -6 -14 -6q-9 0 -15 9q-12 22 -33 51l-52 75
q-21 28 -54 50.5t-67 22.5q-35 0 -60 -29.5t-25 -59.5q0 -36 28 -90t83 -146l61 -105q8 -20 8 -67l-1 -88q0 -50 5 -102q9 -65 42.5 -99t73.5 -34zM341 845q28 0 47 11.5t42 42.5q69 93 74 125l2 18q0 38 -25.5 62.5t-59.5 24.5q-19 0 -39 -9q-58 -28 -117 -124
q-17 -29 -17 -57q0 -38 26 -66t67 -28z" />
    <glyph glyph-name="thorn" unicode="&#xfe;" horiz-adv-x="587" 
d="M146 10q-72 0 -97 51q-20 41 -20 107l1 28l-2 345q0 120 4 165q18 118 122 118q51 0 86.5 -31t39.5 -79l3 -82q43 34 96 34q81 0 139 -77.5t58 -186.5q0 -110 -58 -187t-139 -77q-54 0 -98 34q-3 -162 -135 -162zM380 347q10 0 16.5 15t6.5 36q0 22 -6.5 37t-16.5 15
t-16.5 -15t-6.5 -37q0 -21 6.5 -36t16.5 -15z" />
    <glyph glyph-name="ydieresis" unicode="&#xff;" horiz-adv-x="607" 
d="M284 -5q30 0 58.5 20t40.5 49q23 60 23 143q0 31 -1.5 58.5t-1.5 49.5q0 40 11 61q132 196 168 256q15 25 20 38l2 5q7 18 7 37q0 41 -30.5 72.5t-71.5 31.5q-34 0 -70 -29q-12 -11 -38 -48q-32 -45 -97 -126q-6 -6 -14 -6q-9 0 -15 9q-12 22 -33 51l-52 75
q-21 28 -54 50.5t-67 22.5q-35 0 -60 -29.5t-25 -59.5q0 -36 28 -90t83 -146l61 -105q8 -20 8 -67l-1 -88q0 -50 5 -102q9 -65 42.5 -99t73.5 -34zM412 832q25 0 46.5 17t21.5 51q0 35 -21 51.5t-47 16.5t-47.5 -17t-21.5 -51t21.5 -51t47.5 -17zM252 833q23 0 43 16t20 47
q0 32 -20 47.5t-44 15.5q-23 0 -43 -15.5t-20 -47.5q0 -31 20 -47t44 -16z" />
    <glyph glyph-name="Itilde" unicode="&#x128;" horiz-adv-x="342" 
d="M148 -9q35 0 66 13.5t50.5 49.5t19.5 102q4 104 4 228q0 223 -5 316q-4 48 -39.5 79.5t-87.5 31.5t-85 -33t-38 -86q-2 -15 -3 -29.5t-1.5 -36.5t-0.5 -64l3 -384l-1 -27q0 -72 25 -116t93 -44zM235 846q50 0 87.5 29.5t44.5 68.5l1 14q0 32 -20.5 51t-49.5 19
q-26 0 -54 -18q-6 -4 -9 -4q-4 0 -13.5 8.5t-48.5 32.5q-40 22 -82 22q-69 0 -123 -54q-35 -43 -35 -81q0 -28 16 -47t43 -19q24 0 56 21q13 9 19.5 15t11 9t8.5 3q12 0 49 -31q48 -39 99 -39z" />
    <glyph glyph-name="itilde" unicode="&#x129;" horiz-adv-x="343" 
d="M151 -9q35 0 66 13.5t50.5 49.5t19.5 102q4 104 4 228q0 223 -5 316q-4 48 -39.5 79.5t-87.5 31.5t-85 -33t-38 -86q-2 -15 -3 -29.5t-1.5 -36.5t-0.5 -64l3 -384l-1 -27q0 -72 25 -116t93 -44zM245 846q50 0 87.5 29.5t44.5 68.5l1 14q0 32 -20.5 51t-49.5 19
q-26 0 -54 -18q-6 -4 -9 -4q-4 0 -13.5 8.5t-48.5 32.5q-40 22 -82 22q-69 0 -123 -54q-35 -43 -35 -81q0 -28 16 -47t43 -19q24 0 56 21q13 9 19.5 15t11 9t8.5 3q12 0 49 -31q48 -39 99 -39z" />
    <glyph glyph-name="dotlessi" unicode="&#x131;" horiz-adv-x="339" 
d="M149 -9q34 0 65.5 13.5t51 49.5t19.5 102q4 104 4 228q0 223 -5 316q-4 48 -39.5 79.5t-87.5 31.5q-53 0 -85.5 -33t-37.5 -86q-2 -15 -3 -29.5t-1.5 -36.5t-0.5 -64l3 -384l-1 -27q0 -72 25 -116t93 -44z" />
    <glyph glyph-name="OE" unicode="&#x152;" horiz-adv-x="968" 
d="M294 -21q82 0 149.5 55.5t107.5 149t40 207.5q0 113 -40 207t-107.5 149.5t-149.5 55.5t-149.5 -55.5t-108 -149.5t-40.5 -207q0 -114 40.5 -207.5t108 -149t149.5 -55.5zM296 305q-14 0 -24.5 23.5t-10.5 57.5q0 33 10.5 57t24.5 24q15 0 25 -24t10 -57q0 -34 -10 -57.5
t-25 -23.5zM615 -22q43 0 100 2q43 1 93.5 1.5t88 31t37.5 85.5t-28.5 92t-72.5 43q-90 0 -143 1q-7 1 -8.5 7t-1.5 16t2 14t11 5t31 2l45 2h36.5t47.5 7q54 16 54 113q0 42 -16 62q-27 32 -88 32q-66 0 -86.5 1.5t-25 6.5t-4.5 15v4l-1 16q0 7 9 9q20 0 59 3q51 4 90 4
q45 0 67 23q34 36 34 93q0 53 -23 83q-44 54 -140 54h-240q-96 -6 -106 -79q-2 -16 -2 -101q0 -46 0.5 -94t1.5 -81l1 -33l-1 -204q0 -103 11 -153.5t49 -66.5t119 -16z" />
    <glyph glyph-name="oe" unicode="&#x153;" horiz-adv-x="1020" 
d="M294 -21q82 0 149.5 55.5t107.5 149t40 207.5q0 113 -40 207t-107.5 149.5t-149.5 55.5t-149.5 -55.5t-108 -149.5t-40.5 -207q0 -114 40.5 -207.5t108 -149t149.5 -55.5zM296 305q-14 0 -24.5 23.5t-10.5 57.5q0 33 10.5 57t24.5 24q15 0 25 -24t10 -57q0 -34 -10 -57.5
t-25 -23.5zM670 -22q43 0 100 2q43 1 93.5 1.5t88.5 31t38 85.5t-29 92t-72 43q-91 0 -143 1q-7 1 -8.5 7.5t-1.5 21.5q0 5 1.5 8.5t11 4.5t30.5 2l46 2h36t47 7q55 17 55 113q0 42 -16 62q-27 32 -88 32q-66 0 -87 1.5t-25.5 7t-4.5 18.5l-1 16q0 7 10 9q20 0 59 3
q50 4 90 4q45 0 67 23q34 36 34 93q0 53 -24 83q-44 54 -139 54h-240q-97 -6 -106 -79q-3 -12 -3 -101q0 -46 0.5 -94t1.5 -81t2 -33l-2 -204q0 -103 11 -153.5t49 -66.5t119 -16z" />
    <glyph glyph-name="Scaron" unicode="&#x160;" horiz-adv-x="598" 
d="M259 -15q112 3 183.5 41.5t105.5 99.5t34 126q0 75 -42 142q-51 80 -156 107q-37 9 -69 27t-35 60q1 10 8 18t14 8q9 -2 14 -16t25 -42q27 -36 75 -36q27 0 51.5 13t37.5 37.5t13 51.5q0 41 -24.5 80.5t-65.5 66.5q-63 38 -137 38q-85 0 -162.5 -51t-107.5 -156
q-7 -28 -7 -52q0 -125 172 -211q19 -11 26 -16q62 -42 62 -70q0 -10 -7.5 -15.5t-17.5 -5.5q-15 0 -27 13q-64 68 -118 68q-41 0 -69.5 -30.5t-28.5 -79.5q0 -78 78 -158q46 -42 136 -54q33 -4 39 -4zM292 834q30 0 56 26l41 47q30 34 43 50q20 27 20 50q0 22 -15 36.5
t-37 14.5q-20 0 -41.5 -17.5t-54.5 -56.5l-18 27q-30 45 -69 45q-21 0 -36.5 -15.5t-15.5 -44.5q0 -61 73 -137q25 -25 54 -25z" />
    <glyph glyph-name="scaron" unicode="&#x161;" horiz-adv-x="602" 
d="M265 -15q112 3 183.5 41.5t105.5 99.5t34 126q0 75 -42 142q-51 80 -156 107q-37 9 -69 27t-35 60q1 10 8 18t14 8q9 -2 14 -16t25 -42q27 -36 75 -36q27 0 51.5 13t37.5 37.5t13 51.5q0 41 -24.5 80.5t-65.5 66.5q-63 38 -137 38q-85 0 -162.5 -51t-107.5 -156
q-7 -28 -7 -52q0 -125 172 -211q19 -11 26 -16q62 -42 62 -70q0 -10 -7.5 -15.5t-17.5 -5.5q-15 0 -27 13q-64 68 -118 68q-41 0 -69.5 -30.5t-28.5 -79.5q0 -78 78 -158q46 -42 136 -54q33 -4 39 -4zM292 846q30 0 56 26l41 47q30 34 43 50q20 27 20 50q0 22 -15 36.5
t-37 14.5q-20 0 -41.5 -17.5t-54.5 -56.5l-18 27q-30 45 -69 45q-21 0 -36.5 -15.5t-15.5 -44.5q0 -61 73 -137q25 -25 54 -25z" />
    <glyph glyph-name="Utilde" unicode="&#x168;" horiz-adv-x="663" 
d="M319 -19q92 0 157.5 49.5t101 122.5t35.5 145q7 105 7 186q0 61 -2 108l-1 66q0 48 -22.5 80t-53 47.5t-55.5 15.5q-47 0 -83.5 -42t-39.5 -97q-3 -107 -3 -202q0 -100 -4 -134.5t-27 -34.5q-22 0 -27.5 31.5t-5.5 77.5v67l-1 50l1 66q0 63 -12 109q-5 12 -15 32
q-39 75 -104 75q-89 0 -121 -73q-26 -59 -26 -228q0 -92 7 -191q3 -50 20.5 -106.5t52 -106t89 -81.5t132.5 -32zM406 830q50 0 87.5 29.5t44.5 68.5l1 14q0 32 -20.5 51t-49.5 19q-26 0 -54 -18q-6 -4 -9 -4q-4 0 -13.5 8.5t-48.5 32.5q-40 22 -82 22q-69 0 -123 -54
q-35 -43 -35 -81q0 -28 16 -47t43 -19q24 0 56 21q13 9 19.5 15t11 9t8.5 3q12 0 49 -31q48 -39 99 -39z" />
    <glyph glyph-name="utilde" unicode="&#x169;" horiz-adv-x="661" 
d="M319 -19q92 0 157.5 49.5t101 122.5t35.5 145q7 105 7 186q0 61 -2 108l-1 66q0 48 -22.5 80t-53 47.5t-55.5 15.5q-47 0 -83.5 -42t-39.5 -97q-3 -107 -3 -202q0 -100 -4 -134.5t-27 -34.5q-22 0 -27.5 31.5t-5.5 77.5v67l-1 50l1 66q0 63 -12 109q-5 12 -15 32
q-39 75 -104 75q-89 0 -121 -73q-26 -59 -26 -228q0 -92 7 -191q3 -50 20.5 -106.5t52 -106t89 -81.5t132.5 -32zM404 830q50 0 87.5 29.5t44.5 68.5l1 14q0 32 -20.5 51t-49.5 19q-26 0 -54 -18q-6 -4 -9 -4q-4 0 -13.5 8.5t-48.5 32.5q-40 22 -82 22q-69 0 -123 -54
q-35 -43 -35 -81q0 -28 16 -47t43 -19q24 0 56 21q13 9 19.5 15t11 9t8.5 3q12 0 49 -31q48 -39 99 -39z" />
    <glyph glyph-name="Ydieresis" unicode="&#x178;" horiz-adv-x="604" 
d="M280 -5q30 0 58.5 20t40.5 49q23 60 23 143q0 31 -1.5 58.5t-1.5 49.5q0 40 11 61q132 196 168 256q15 25 20 38l2 5q7 18 7 37q0 41 -30.5 72.5t-71.5 31.5q-34 0 -70 -29q-12 -11 -38 -48q-32 -45 -97 -126q-6 -6 -14 -6q-9 0 -15 9q-12 22 -33 51l-52 75
q-21 28 -54 50.5t-67 22.5q-35 0 -60 -29.5t-25 -59.5q0 -36 28 -90t83 -146l61 -105q8 -20 8 -67l-1 -88q0 -50 5 -102q9 -65 42.5 -99t73.5 -34zM412 833q25 0 46.5 17t21.5 51q0 35 -21 51.5t-47 16.5t-47.5 -17t-21.5 -51t21.5 -51t47.5 -17zM252 834q23 0 43 16t20 47
q0 32 -20 47.5t-44 15.5q-23 0 -43 -15.5t-20 -47.5q0 -31 20 -47t44 -16z" />
    <glyph glyph-name="Zcaron" unicode="&#x17d;" horiz-adv-x="670" 
d="M160 -9l359 1q60 0 97.5 40.5t37.5 86.5q0 10 -2 20q-21 92 -122 92l-26 -1q-7 -1 -127 -3l-29 1q2 4 3.5 8t3.5 6q74 106 123 172q56 73 142 200q28 45 28 93q0 43 -26 73t-71 30l-360 1q-36 0 -75.5 -7t-68 -26t-33.5 -54l-1 -27q0 -28 11.5 -53.5t43.5 -48.5
q22 -15 63 -19.5t85 -5.5q29 0 54 -2q-85 -107 -168 -232l-5 -8q-85 -116 -85 -203q1 -56 41 -95t107 -39zM325 851q30 0 56 26l41 47q30 34 43 50q20 27 20 50q0 22 -15 36.5t-37 14.5q-20 0 -41.5 -17.5t-54.5 -56.5l-18 27q-30 45 -69 45q-21 0 -36.5 -15.5t-15.5 -44.5
q0 -61 73 -137q25 -25 54 -25z" />
    <glyph glyph-name="zcaron" unicode="&#x17e;" horiz-adv-x="674" 
d="M165 -9l359 1q60 0 97.5 40.5t37.5 86.5q0 10 -2 20q-21 92 -122 92l-26 -1q-7 -1 -127 -3l-29 1q2 4 3.5 8t3.5 6q74 106 123 172q56 73 142 200q28 45 28 93q0 43 -26 73t-71 30l-360 1q-36 0 -75.5 -7t-68 -26t-33.5 -54l-1 -27q0 -28 11.5 -53.5t43.5 -48.5
q22 -15 63 -19.5t85 -5.5q29 0 54 -2q-85 -107 -168 -232l-5 -8q-85 -116 -85 -203q1 -56 41 -95t107 -39zM325 857q30 0 56 26l41 47q30 34 43 50q20 27 20 50q0 22 -15 36.5t-37 14.5q-20 0 -41.5 -17.5t-54.5 -56.5l-18 27q-30 45 -69 45q-21 0 -36.5 -15.5t-15.5 -44.5
q0 -61 73 -137q25 -25 54 -25z" />
    <glyph glyph-name="circumflex" unicode="&#x2c6;" horiz-adv-x="352" 
d="M266 702q26 0 46 18.5t20 47.5q-1 33 -18 52l-18 20q-38 44 -64 67.5t-52 23.5q-39 0 -98 -59q-49 -48 -62 -119q2 -8 2 -12.5t1 -7.5q10 -30 36 -30q6 0 13 2q33 11 73 58q18 25 28 25q3 0 23 -30l19 -31q24 -25 51 -25z" />
    <glyph glyph-name="caron" unicode="&#x2c7;" horiz-adv-x="327" 
d="M147 708q30 0 56 26l41 47q30 34 43 50q20 27 20 50q0 22 -15 36.5t-37 14.5q-20 0 -41.5 -17.5t-54.5 -56.5l-18 27q-30 45 -69 45q-21 0 -36.5 -15.5t-15.5 -44.5q0 -61 73 -137q25 -25 54 -25z" />
    <glyph glyph-name="ring" unicode="&#x2da;" horiz-adv-x="268" 
d="M136 684q43 0 77.5 32.5t34.5 82.5q-1 47 -32.5 79.5t-80.5 32.5q-46 0 -80.5 -33t-34.5 -84q2 -45 33 -77.5t77 -32.5h6zM137 774q-10 0 -18 7.5t-8 18.5q0 10 6 16t16 7q11 0 18 -7t7 -18q0 -10 -6 -16.5t-15 -7.5z" />
    <glyph glyph-name="tilde" unicode="&#x2dc;" horiz-adv-x="475" 
d="M322 704q50 0 87.5 29.5t44.5 68.5l1 14q0 32 -20.5 51t-49.5 19q-26 0 -54 -18q-6 -4 -9 -4q-4 0 -13.5 8.5t-48.5 32.5q-40 22 -82 22q-69 0 -123 -54q-35 -43 -35 -81q0 -28 16 -47t43 -19q24 0 56 21q13 9 19.5 15t11 9t8.5 3q12 0 49 -31q48 -39 99 -39z" />
    <glyph glyph-name="Kappa" unicode="&#x39a;" horiz-adv-x="615" 
d="M496 -7q16 0 50.5 10.5t50.5 65.5q3 11 3 24q0 48 -49 110l-76 73q-77 73 -87 89q-4 4 -4 9q2 8 14 18q3 2 4 4q47 52 86 92q88 84 117 145q10 29 10 55q0 27 -16.5 62.5t-60.5 52.5q-14 6 -29 6q-28 0 -57 -23q-46 -39 -171 -167l-36 -36l-2 43v16q0 26 -2 58
q0 37 -35.5 70.5t-80.5 36.5q-38 0 -68.5 -26.5t-41.5 -64.5q-15 -73 -15 -289q0 -87 1 -167t1 -112q12 -153 110 -153l20 -1q38 0 68 27q24 24 29 51q2 15 2 31l-1 65l2 1l35 -27q52 -40 152 -120q39 -29 77 -29z" />
    <glyph glyph-name="kappa" unicode="&#x3ba;" horiz-adv-x="470" 
d="M106 -8l-18 1q-77 0 -87 111l-1 83v90q0 47 0.5 122t11.5 121q8 28 32.5 47.5t53.5 19.5q36 -2 64 -26.5t29 -54t1 -52.5l1 -32l13 15q88 103 118.5 127.5t60.5 24.5q59 0 79 -61q4 -12 4 -24q0 -32 -27 -66q-135 -160 -137 -168v-2q0 -3 22.5 -24.5t49.5 -45.5l60 -54
q34 -38 34 -71q0 -9 -7.5 -34t-48.5 -40q-14 -5 -28 -5q-27 0 -55 18l-75 55q-64 46 -72 53l-2 -1l1 -44q0 -14 -3 -30t-22 -33q-23 -20 -52 -20z" />
    <glyph glyph-name="quoteleft" unicode="&#x2018;" horiz-adv-x="210" 
d="M118 678q15 0 29 8q43 26 43 100l-3 83q-2 37 -17 60.5t-34.5 35t-40.5 11.5q-19 0 -36 -10q-35 -24 -37 -68q-2 -24 -2 -48q0 -31 4.5 -64t19.5 -58q34 -50 74 -50z" />
    <glyph glyph-name="quoteright" unicode="&#x2019;" horiz-adv-x="210" 
d="M118 678q15 0 29 8q43 26 43 100l-3 83q-2 37 -17 60.5t-34.5 35t-40.5 11.5q-19 0 -36 -10q-35 -24 -37 -68q-2 -24 -2 -48q0 -31 4.5 -64t19.5 -58q34 -50 74 -50z" />
    <glyph glyph-name="quotesinglbase" unicode="&#x201a;" horiz-adv-x="210" 
d="M118 -141q15 0 29 8q43 26 43 100l-3 83q-2 37 -17 60.5t-34.5 35t-40.5 11.5q-19 0 -36 -10q-35 -24 -37 -68q-2 -24 -2 -48q0 -31 4.5 -64t19.5 -58q34 -50 74 -50z" />
    <glyph glyph-name="quotedblleft" unicode="&#x201c;" horiz-adv-x="418" 
d="M118 678q15 0 29 8q43 26 43 100l-3 83q-2 37 -17 60.5t-34.5 35t-40.5 11.5q-19 0 -36 -10q-35 -24 -37 -68q-2 -24 -2 -48q0 -31 4.5 -64t19.5 -58q34 -50 74 -50zM326 680q15 0 30 8.5t27 28.5q15 25 15 71l-3 83q-2 36 -18 61q-33 46 -75 46q-18 0 -35 -10
q-35 -25 -37 -68q-2 -24 -2 -48q0 -84 24 -122q33 -50 74 -50z" />
    <glyph glyph-name="quotedblright" unicode="&#x201d;" horiz-adv-x="418" 
d="M118 678q15 0 29 8q43 26 43 100l-3 83q-2 37 -17 60.5t-34.5 35t-40.5 11.5q-19 0 -36 -10q-35 -24 -37 -68q-2 -24 -2 -48q0 -31 4.5 -64t19.5 -58q34 -50 74 -50zM326 680q15 0 30 8.5t27 28.5q15 25 15 71l-3 83q-2 36 -18 61q-33 46 -75 46q-18 0 -35 -10
q-35 -25 -37 -68q-2 -24 -2 -48q0 -84 24 -122q33 -50 74 -50z" />
    <glyph glyph-name="quotedblbase" unicode="&#x201e;" horiz-adv-x="418" 
d="M118 -129q15 0 29 8q43 26 43 100l-3 83q-2 37 -17 60.5t-34.5 35t-40.5 11.5q-19 0 -36 -10q-35 -24 -37 -68q-2 -24 -2 -48q0 -31 4.5 -64t19.5 -58q34 -50 74 -50zM326 -127q15 0 30 8.5t27 28.5q15 25 15 71l-3 83q-2 36 -18 61q-33 46 -75 46q-18 0 -35 -10
q-35 -25 -37 -68q-2 -24 -2 -48q0 -84 24 -122q33 -50 74 -50z" />
    <glyph glyph-name="dagger" unicode="&#x2020;" horiz-adv-x="555" 
d="M313 -68q57 8 73 53t17 101l1 153q3 100 3 208q33 2 57 11q36 14 53.5 37t17.5 49q0 37 -36 68q-33 27 -94 30q-1 38 -2 73.5t-11 70t-34 58.5t-67 24q-94 0 -108 -78q-6 -33 -6 -64q-1 -6 -1 -86q-56 -2 -83 -12q-37 -15 -55 -38t-18 -48q0 -27 20 -51t59 -36
q35 -8 77 -10q0 -247 0.5 -307t0.5 -64q2 -29 12 -61q23 -81 124 -81z" />
    <glyph glyph-name="Euro" unicode="&#x20ac;" horiz-adv-x="694" 
d="M396 -9h-11q-179 1 -266 185q-9 20 -16 41q-25 4 -38 10q-45 28 -45 74q0 2 1.5 28t55.5 53l1 31l-13 4q-45 29 -45 73q0 10 7 43.5t88 48.5q15 36 35 69q85 131 221 155q23 4 44 4q110 0 201 -97q18 -30 18 -59q0 -69 -63 -98q-25 -8 -43 -8q-26 0 -50 14q-20 13 -40 13
q-28 0 -49 -16q30 -29 30 -66q0 -13 -9 -47.5t-74 -45.5q-1 -4 -1 -9l15 -3q69 -19 69 -86q0 -31 -20 -58q12 -7 21 -7q23 1 43.5 6.5t37.5 25.5q32 32 65 32q71 0 101 -83q7 -18 7 -37q0 -38 -29 -76q-74 -75 -136 -95q-57 -19 -113 -19z" />
    <glyph glyph-name="A.salt" unicode="&#xe000;" horiz-adv-x="0" 
 />
    </font>
</defs>
</svg>
